if (_typeface_js && _typeface_js.loadFace) _typeface_js.loadFace({"glyphs":{"0":{"ha":864,"x_min":0,"x_max":0,"o":"m 432 -14 b 90 458 210 -14 90 151 b 432 931 90 765 210 931 b 774 458 654 931 774 765 b 432 -14 774 151 654 -14 m 432 86 b 658 458 579 86 658 217 b 432 831 658 700 579 831 b 206 458 285 831 206 700 b 432 86 206 217 285 86 "},"1":{"ha":568,"x_min":0,"x_max":0,"o":"m 426 917 l 426 0 l 315 0 l 315 672 b 318 779 315 703 317 740 b 81 650 254 718 167 671 l 51 751 b 329 917 117 760 278 846 "},"2":{"ha":810,"x_min":0,"x_max":0,"o":"m 103 90 b 583 643 469 360 583 481 b 389 826 583 751 508 826 b 171 600 263 826 183 738 l 74 658 b 393 931 97 818 207 931 b 700 643 581 931 700 813 b 261 101 700 471 589 319 l 261 100 b 399 104 292 101 371 104 l 719 104 l 719 0 l 103 0 "},"3":{"ha":810,"x_min":0,"x_max":0,"o":"m 404 931 b 690 692 592 931 690 818 b 518 465 690 561 610 465 l 518 463 b 711 246 639 463 711 363 b 389 -14 711 97 585 -14 b 72 206 233 -14 129 63 l 175 260 b 397 90 208 157 261 90 b 596 260 526 90 597 163 b 385 410 594 372 525 410 l 349 410 l 349 514 l 385 514 b 575 665 508 514 574 563 b 406 826 576 772 515 826 b 211 686 294 826 233 771 l 107 735 b 404 931 151 854 264 931 "},"4":{"ha":849,"x_min":0,"x_max":0,"o":"m 782 240 l 619 240 l 619 0 l 508 0 l 508 240 l 61 240 l 61 322 l 479 917 l 619 917 l 619 336 l 782 336 m 179 336 l 508 336 l 508 679 l 514 826 l 511 826 b 419 674 489 781 449 715 "},"5":{"ha":808,"x_min":0,"x_max":0,"o":"m 432 588 b 721 292 607 588 721 469 b 407 -14 721 101 603 -14 b 88 196 236 -14 140 64 l 196 253 b 403 90 225 156 275 90 b 606 286 529 90 607 164 b 411 483 604 415 535 483 b 207 394 322 483 250 457 l 108 394 l 164 917 l 679 917 l 679 813 l 258 813 l 222 524 l 221 511 l 222 511 b 432 588 267 557 335 588 "},"6":{"ha":858,"x_min":0,"x_max":0,"o":"m 457 931 b 749 738 603 931 692 874 l 646 689 b 450 826 618 774 560 826 b 203 438 303 826 203 656 l 203 413 l 208 413 b 460 581 239 531 360 581 b 768 283 646 581 768 465 b 453 -14 768 101 646 -14 b 99 458 222 -14 99 185 b 457 931 99 765 254 931 m 451 474 b 251 285 332 474 251 396 b 451 93 251 169 332 93 b 651 285 578 93 651 164 b 451 474 651 401 578 474 "},"7":{"ha":779,"x_min":0,"x_max":0,"o":"m 731 917 l 731 813 b 403 0 499 569 403 310 l 289 0 b 610 813 289 296 396 581 l 56 813 l 56 917 "},"8":{"ha":856,"x_min":0,"x_max":0,"o":"m 428 929 b 719 689 604 929 719 838 b 590 483 719 594 671 519 l 590 482 b 761 247 694 443 761 363 b 428 -14 761 88 629 -14 b 94 247 228 -14 94 88 b 267 482 94 360 160 443 l 267 483 b 136 689 186 518 136 593 b 428 929 136 838 251 929 m 428 825 b 251 678 319 825 251 771 b 428 532 251 588 322 532 b 604 678 533 532 604 588 b 428 825 604 771 536 825 m 428 90 b 646 258 563 90 646 154 b 428 428 646 364 560 428 b 210 258 297 428 210 364 b 428 90 210 154 294 90 "},"9":{"ha":865,"x_min":0,"x_max":0,"o":"m 413 931 b 767 458 643 931 767 736 b 414 -14 767 151 644 -14 b 96 193 244 -14 149 58 l 206 251 b 413 90 235 156 276 90 b 665 496 604 90 665 250 l 665 508 l 660 508 b 404 336 631 375 507 336 b 97 633 219 336 97 451 b 413 931 97 815 219 931 m 414 824 b 214 632 288 824 214 753 b 414 443 214 515 288 443 b 614 632 533 443 614 521 b 414 824 614 747 533 824 "}," ":{"ha":474,"x_min":0,"x_max":0,"o":""},"A":{"ha":917,"x_min":0,"x_max":0,"o":"m 665 254 l 250 254 l 153 0 l 36 0 l 393 917 l 525 917 l 881 0 l 763 0 m 625 358 l 501 683 l 458 811 l 456 811 l 415 688 l 290 358 "},"Á":{"ha":917,"x_min":0,"x_max":0,"o":"m 490 1032 l 400 1032 l 479 1238 l 610 1238 m 665 254 l 250 254 l 153 0 l 36 0 l 393 917 l 525 917 l 881 0 l 763 0 m 625 358 l 501 683 l 458 811 l 456 811 l 415 688 l 290 358 "},"Ă":{"ha":917,"x_min":0,"x_max":0,"o":"m 458 1024 b 253 1229 336 1024 253 1107 l 344 1229 b 458 1107 344 1164 393 1107 b 572 1229 524 1107 572 1164 l 664 1229 b 458 1024 664 1107 581 1024 m 665 254 l 250 254 l 153 0 l 36 0 l 393 917 l 525 917 l 881 0 l 763 0 m 625 358 l 501 683 l 458 811 l 456 811 l 415 688 l 290 358 "},"Â":{"ha":917,"x_min":0,"x_max":0,"o":"m 339 1022 l 238 1022 l 396 1254 l 521 1254 l 679 1022 l 578 1022 l 458 1182 m 665 254 l 250 254 l 153 0 l 36 0 l 393 917 l 525 917 l 881 0 l 763 0 m 625 358 l 501 683 l 458 811 l 456 811 l 415 688 l 290 358 "},"Ä":{"ha":917,"x_min":0,"x_max":0,"o":"m 324 1031 b 244 1110 276 1031 244 1063 b 324 1189 244 1157 276 1189 b 403 1110 371 1189 403 1157 b 324 1031 403 1063 371 1031 m 593 1031 b 514 1110 546 1031 514 1063 b 593 1189 514 1157 546 1189 b 672 1110 640 1189 672 1157 b 593 1031 672 1063 640 1031 m 665 254 l 250 254 l 153 0 l 36 0 l 393 917 l 525 917 l 881 0 l 763 0 m 625 358 l 501 683 l 458 811 l 456 811 l 415 688 l 290 358 "},"À":{"ha":917,"x_min":0,"x_max":0,"o":"m 414 1032 l 294 1238 l 425 1238 l 504 1032 m 665 254 l 250 254 l 153 0 l 36 0 l 393 917 l 525 917 l 881 0 l 763 0 m 625 358 l 501 683 l 458 811 l 456 811 l 415 688 l 290 358 "},"Ā":{"ha":917,"x_min":0,"x_max":0,"o":"m 700 1050 l 217 1050 l 217 1143 l 700 1143 m 665 254 l 250 254 l 153 0 l 36 0 l 393 917 l 525 917 l 881 0 l 763 0 m 625 358 l 501 683 l 458 811 l 456 811 l 415 688 l 290 358 "},"Ą":{"ha":917,"x_min":0,"x_max":0,"o":"m 897 -272 b 783 -299 871 -290 824 -299 b 618 -154 683 -299 618 -246 b 754 19 618 -78 661 -21 l 665 254 l 250 254 l 153 0 l 36 0 l 393 917 l 525 917 l 881 0 b 708 -147 740 -46 708 -94 b 797 -219 708 -193 743 -219 b 875 -201 821 -219 853 -217 m 625 358 l 501 683 l 458 811 l 456 811 l 415 688 l 290 358 "},"Å":{"ha":917,"x_min":0,"x_max":0,"o":"m 665 254 l 250 254 l 153 0 l 36 0 l 375 871 b 285 1019 319 897 285 950 b 460 1183 285 1117 356 1183 b 633 1019 564 1183 633 1117 b 543 871 633 950 599 897 l 881 0 l 763 0 m 458 1115 b 360 1019 401 1115 360 1075 b 458 924 360 964 401 924 b 557 1019 515 924 557 964 b 458 1115 557 1075 515 1115 m 625 358 l 501 683 l 458 811 l 456 811 l 415 688 l 290 358 "},"Ã":{"ha":917,"x_min":0,"x_max":0,"o":"m 361 1126 b 293 1031 319 1126 303 1090 l 206 1031 b 363 1217 215 1153 264 1217 b 551 1122 464 1217 496 1122 b 621 1218 593 1122 611 1158 l 708 1218 b 553 1032 699 1096 649 1032 b 361 1126 449 1032 421 1126 m 665 254 l 250 254 l 153 0 l 36 0 l 393 917 l 525 917 l 881 0 l 763 0 m 625 358 l 501 683 l 458 811 l 456 811 l 415 688 l 290 358 "},"Æ":{"ha":1325,"x_min":0,"x_max":0,"o":"m 1253 104 l 1253 0 l 626 0 l 626 296 l 299 296 l 128 0 l 8 0 l 544 917 l 1232 917 l 1232 813 l 738 813 l 738 517 l 1114 517 l 1114 413 l 738 413 l 738 104 m 626 400 l 626 813 l 599 813 l 360 400 "},"B":{"ha":907,"x_min":0,"x_max":0,"o":"m 150 917 l 476 917 b 789 664 693 917 789 819 b 635 467 789 571 733 486 l 635 465 b 813 257 743 444 813 357 b 475 0 813 101 692 0 l 150 0 m 478 514 b 672 664 608 514 672 563 b 478 813 672 764 608 813 l 261 813 l 261 514 m 501 104 b 696 257 632 104 696 160 b 501 410 696 354 632 410 l 261 410 l 261 104 "},"C":{"ha":953,"x_min":0,"x_max":0,"o":"m 889 235 b 519 -14 831 78 692 -14 b 94 458 258 -14 94 168 b 517 931 94 749 261 931 b 872 717 694 931 814 856 l 763 665 b 525 826 722 771 647 826 b 211 458 338 826 211 690 b 519 90 211 228 329 90 b 778 276 642 90 738 153 l 889 235 "},"Ć":{"ha":953,"x_min":0,"x_max":0,"o":"m 668 1238 l 549 1032 l 458 1032 l 538 1238 m 889 235 b 519 -14 831 78 692 -14 b 94 458 258 -14 94 168 b 517 931 94 749 261 931 b 872 717 694 931 814 856 l 763 665 b 525 826 722 771 647 826 b 211 458 338 826 211 690 b 519 90 211 228 329 90 b 778 276 642 90 738 153 l 889 235 "},"Č":{"ha":953,"x_min":0,"x_max":0,"o":"m 579 1025 l 454 1025 l 296 1257 l 397 1257 l 517 1097 l 636 1257 l 738 1257 m 889 235 b 519 -14 831 78 692 -14 b 94 458 258 -14 94 168 b 517 931 94 749 261 931 b 872 717 694 931 814 856 l 763 665 b 525 826 722 771 647 826 b 211 458 338 826 211 690 b 519 90 211 228 329 90 b 778 276 642 90 738 153 l 889 235 "},"Ç":{"ha":953,"x_min":0,"x_max":0,"o":"m 889 235 b 596 -7 839 101 732 15 b 674 -150 647 -47 674 -100 b 513 -299 674 -228 615 -299 b 360 -250 447 -299 399 -285 l 401 -174 b 497 -215 424 -197 458 -215 b 576 -135 542 -215 576 -183 b 474 -12 576 -83 554 -51 b 94 458 239 8 94 186 b 517 931 94 749 261 931 b 872 717 694 931 814 856 l 763 665 b 525 826 722 771 647 826 b 211 458 338 826 211 690 b 519 90 211 228 329 90 b 778 276 642 90 738 153 l 889 235 "},"D":{"ha":1001,"x_min":0,"x_max":0,"o":"m 446 917 b 907 458 733 917 907 753 b 446 0 907 164 733 0 l 150 0 l 150 917 l 446 917 m 457 104 b 790 458 667 104 790 236 b 457 813 790 681 667 813 l 261 813 l 261 104 l 457 104 "},"Ð":{"ha":1024,"x_min":0,"x_max":0,"o":"m 468 917 b 929 458 756 917 929 753 b 468 0 929 164 756 0 l 172 0 l 172 421 l 36 421 l 36 504 l 172 504 l 172 917 l 468 917 m 479 104 b 813 458 689 104 813 236 b 479 813 813 681 689 813 l 283 813 l 283 504 l 557 504 l 557 421 l 283 421 l 283 104 l 479 104 "},"Ď":{"ha":1001,"x_min":0,"x_max":0,"o":"m 389 1025 l 231 1257 l 332 1257 l 451 1097 l 571 1257 l 672 1257 l 514 1025 m 446 917 b 907 458 733 917 907 753 b 446 0 907 164 733 0 l 150 0 l 150 917 l 446 917 m 457 104 b 790 458 667 104 790 236 b 457 813 790 681 667 813 l 261 813 l 261 104 l 457 104 "},"Đ":{"ha":1024,"x_min":0,"x_max":0,"o":"m 468 917 b 929 458 756 917 929 753 b 468 0 929 164 756 0 l 172 0 l 172 421 l 36 421 l 36 504 l 172 504 l 172 917 l 468 917 m 479 104 b 813 458 689 104 813 236 b 479 813 813 681 689 813 l 283 813 l 283 504 l 557 504 l 557 421 l 283 421 l 283 104 l 479 104 "},"E":{"ha":886,"x_min":0,"x_max":0,"o":"m 814 104 l 814 0 l 150 0 l 150 917 l 793 917 l 793 813 l 261 813 l 261 517 l 675 517 l 675 413 l 261 413 l 261 104 "},"É":{"ha":886,"x_min":0,"x_max":0,"o":"m 503 1032 l 413 1032 l 492 1238 l 622 1238 m 814 104 l 814 0 l 150 0 l 150 917 l 793 917 l 793 813 l 261 813 l 261 517 l 675 517 l 675 413 l 261 413 l 261 104 "},"Ě":{"ha":886,"x_min":0,"x_max":0,"o":"m 408 1025 l 250 1257 l 351 1257 l 471 1097 l 590 1257 l 692 1257 l 533 1025 m 814 104 l 814 0 l 150 0 l 150 917 l 793 917 l 793 813 l 261 813 l 261 517 l 675 517 l 675 413 l 261 413 l 261 104 "},"Ê":{"ha":886,"x_min":0,"x_max":0,"o":"m 351 1022 l 250 1022 l 408 1254 l 533 1254 l 692 1022 l 590 1022 l 471 1182 m 814 104 l 814 0 l 150 0 l 150 917 l 793 917 l 793 813 l 261 813 l 261 517 l 675 517 l 675 413 l 261 413 l 261 104 "},"Ë":{"ha":886,"x_min":0,"x_max":0,"o":"m 336 1031 b 257 1110 289 1031 257 1063 b 336 1189 257 1157 289 1189 b 415 1110 383 1189 415 1157 b 336 1031 415 1063 383 1031 m 606 1031 b 526 1110 558 1031 526 1063 b 606 1189 526 1157 558 1189 b 685 1110 653 1189 685 1157 b 606 1031 685 1063 653 1031 m 814 104 l 814 0 l 150 0 l 150 917 l 793 917 l 793 813 l 261 813 l 261 517 l 675 517 l 675 413 l 261 413 l 261 104 "},"Ė":{"ha":886,"x_min":0,"x_max":0,"o":"m 471 1050 b 388 1133 421 1050 388 1083 b 471 1217 388 1183 421 1217 b 554 1133 521 1217 554 1183 b 471 1050 554 1083 521 1050 m 814 104 l 814 0 l 150 0 l 150 917 l 793 917 l 793 813 l 261 813 l 261 517 l 675 517 l 675 413 l 261 413 l 261 104 "},"È":{"ha":886,"x_min":0,"x_max":0,"o":"m 447 1032 l 328 1238 l 458 1238 l 538 1032 m 814 104 l 814 0 l 150 0 l 150 917 l 793 917 l 793 813 l 261 813 l 261 517 l 675 517 l 675 413 l 261 413 l 261 104 "},"Ē":{"ha":886,"x_min":0,"x_max":0,"o":"m 713 1050 l 229 1050 l 229 1143 l 713 1143 m 814 104 l 814 0 l 150 0 l 150 917 l 793 917 l 793 813 l 261 813 l 261 517 l 675 517 l 675 413 l 261 413 l 261 104 "},"Ę":{"ha":886,"x_min":0,"x_max":0,"o":"m 831 -272 b 717 -299 804 -290 757 -299 b 551 -162 617 -299 551 -246 b 672 0 551 -83 593 -35 l 150 0 l 150 917 l 793 917 l 793 813 l 261 813 l 261 517 l 675 517 l 675 413 l 261 413 l 261 104 l 814 104 l 814 0 b 642 -147 674 -47 642 -94 b 731 -219 642 -193 676 -219 b 808 -201 754 -219 786 -217 "},"F":{"ha":847,"x_min":0,"x_max":0,"o":"m 261 813 l 261 517 l 675 517 l 675 413 l 261 413 l 261 0 l 150 0 l 150 917 l 792 917 l 792 813 "},"G":{"ha":1006,"x_min":0,"x_max":0,"o":"m 896 463 l 896 0 l 813 0 l 808 124 b 519 -14 756 38 660 -14 b 94 458 258 -14 94 168 b 522 931 94 749 265 931 b 889 721 704 931 818 863 l 788 665 b 522 826 747 771 650 826 b 211 458 336 826 211 689 b 524 90 211 228 319 90 b 794 326 676 90 794 168 l 794 358 l 503 358 l 503 463 "},"Ğ":{"ha":1006,"x_min":0,"x_max":0,"o":"m 518 1024 b 313 1229 396 1024 313 1107 l 404 1229 b 518 1107 404 1164 453 1107 b 632 1229 583 1107 632 1164 l 724 1229 b 518 1024 724 1107 640 1024 m 896 463 l 896 0 l 813 0 l 808 124 b 519 -14 756 38 660 -14 b 94 458 258 -14 94 168 b 522 931 94 749 265 931 b 889 721 704 931 818 863 l 788 665 b 522 826 747 771 650 826 b 211 458 336 826 211 689 b 524 90 211 228 319 90 b 794 326 676 90 794 168 l 794 358 l 503 358 l 503 463 "},"H":{"ha":1019,"x_min":0,"x_max":0,"o":"m 869 917 l 869 0 l 758 0 l 758 413 l 261 413 l 261 0 l 150 0 l 150 917 l 261 917 l 261 517 l 758 517 l 758 917 "},"I":{"ha":411,"x_min":0,"x_max":0,"o":"m 261 0 l 150 0 l 150 917 l 261 917 "},"Ĳ":{"ha":1197,"x_min":0,"x_max":0,"o":"m 261 0 l 150 0 l 150 917 l 261 917 m 1057 314 b 746 -14 1057 108 940 -14 b 476 303 540 -14 440 110 l 579 324 b 742 90 558 167 603 90 b 946 342 899 90 946 178 l 946 917 l 1057 917 "},"Í":{"ha":411,"x_min":0,"x_max":0,"o":"m 357 1238 l 238 1032 l 147 1032 l 226 1238 m 261 0 l 150 0 l 150 917 l 261 917 "},"Î":{"ha":411,"x_min":0,"x_max":0,"o":"m 325 1022 l 206 1182 l 86 1022 l -15 1022 l 143 1254 l 268 1254 l 426 1022 m 261 0 l 150 0 l 150 917 l 261 917 "},"Ï":{"ha":411,"x_min":0,"x_max":0,"o":"m 86 1189 b 165 1110 133 1189 165 1157 b 86 1031 165 1063 133 1031 b 7 1110 39 1031 7 1063 b 86 1189 7 1157 39 1189 m 325 1189 b 404 1110 372 1189 404 1157 b 325 1031 404 1063 372 1031 b 246 1110 278 1031 246 1063 b 325 1189 246 1157 278 1189 m 261 0 l 150 0 l 150 917 l 261 917 "},"İ":{"ha":411,"x_min":0,"x_max":0,"o":"m 206 1217 b 289 1133 256 1217 289 1183 b 206 1050 289 1083 256 1050 b 122 1133 156 1050 122 1083 b 206 1217 122 1183 156 1217 m 261 0 l 150 0 l 150 917 l 261 917 "},"Ì":{"ha":411,"x_min":0,"x_max":0,"o":"m 251 1032 l 161 1032 l 42 1238 l 172 1238 m 261 0 l 150 0 l 150 917 l 261 917 "},"Ī":{"ha":411,"x_min":0,"x_max":0,"o":"m 356 1050 l 56 1050 l 56 1143 l 356 1143 m 261 0 l 150 0 l 150 917 l 261 917 "},"Į":{"ha":411,"x_min":0,"x_max":0,"o":"m 303 -268 b 185 -299 272 -289 236 -299 b 24 -162 86 -299 24 -246 b 150 10 24 -94 64 -32 l 150 917 l 261 917 l 261 0 b 113 -143 140 -56 113 -103 b 194 -218 113 -192 140 -218 b 276 -197 229 -218 254 -212 "},"J":{"ha":786,"x_min":0,"x_max":0,"o":"m 646 314 b 335 -14 646 108 529 -14 b 65 303 129 -14 29 110 l 168 324 b 331 90 147 167 192 90 b 535 342 488 90 535 178 l 535 917 l 646 917 "},"K":{"ha":911,"x_min":0,"x_max":0,"o":"m 425 461 l 261 294 l 261 0 l 150 0 l 150 917 l 261 917 l 261 444 l 722 917 l 868 917 l 503 543 l 872 0 l 739 0 "},"L":{"ha":831,"x_min":0,"x_max":0,"o":"m 786 104 l 786 0 l 150 0 l 150 917 l 261 917 l 261 104 "},"Ĺ":{"ha":831,"x_min":0,"x_max":0,"o":"m 238 1032 l 147 1032 l 226 1238 l 357 1238 m 786 104 l 786 0 l 150 0 l 150 917 l 261 917 l 261 104 "},"Ľ":{"ha":831,"x_min":0,"x_max":0,"o":"m 465 699 l 389 699 l 417 972 l 522 972 m 786 104 l 786 0 l 150 0 l 150 917 l 261 917 l 261 104 "},"Ŀ":{"ha":858,"x_min":0,"x_max":0,"o":"m 261 104 l 786 104 l 786 0 l 150 0 l 150 917 l 261 917 m 735 565 b 825 475 789 565 825 529 b 735 385 825 421 789 385 b 644 475 681 385 644 421 b 735 565 644 529 681 565 "},"Ł":{"ha":872,"x_min":0,"x_max":0,"o":"m 828 104 l 828 0 l 192 0 l 192 354 l 46 272 l 46 388 l 192 469 l 192 917 l 303 917 l 303 531 l 549 668 l 549 553 l 303 415 l 303 104 "},"M":{"ha":1186,"x_min":0,"x_max":0,"o":"m 1036 0 l 931 0 l 931 576 l 943 818 l 942 818 l 640 0 l 546 0 l 244 818 l 243 818 l 256 576 l 256 0 l 150 0 l 150 917 l 321 917 l 522 360 l 592 131 l 594 131 l 665 358 l 865 917 l 1036 917 "},"N":{"ha":1019,"x_min":0,"x_max":0,"o":"m 869 0 l 732 0 l 349 614 l 251 794 l 250 794 l 256 647 l 256 0 l 150 0 l 150 917 l 288 917 l 669 306 l 768 122 l 769 122 l 764 269 l 764 917 l 869 917 "},"Ń":{"ha":1019,"x_min":0,"x_max":0,"o":"m 667 1238 l 547 1032 l 457 1032 l 536 1238 m 869 0 l 732 0 l 349 614 l 251 794 l 250 794 l 256 647 l 256 0 l 150 0 l 150 917 l 288 917 l 669 306 l 768 122 l 769 122 l 764 269 l 764 917 l 869 917 "},"Ň":{"ha":1019,"x_min":0,"x_max":0,"o":"m 578 1025 l 453 1025 l 294 1257 l 396 1257 l 515 1097 l 635 1257 l 736 1257 m 869 0 l 732 0 l 349 614 l 251 794 l 250 794 l 256 647 l 256 0 l 150 0 l 150 917 l 288 917 l 669 306 l 768 122 l 769 122 l 764 269 l 764 917 l 869 917 "},"Ñ":{"ha":1019,"x_min":0,"x_max":0,"o":"m 765 1218 b 610 1032 756 1096 706 1032 b 418 1126 506 1032 478 1126 b 350 1031 376 1126 360 1090 l 263 1031 b 419 1217 272 1153 321 1217 b 608 1122 521 1217 553 1122 b 678 1218 650 1122 668 1158 l 765 1218 m 869 0 l 732 0 l 349 614 l 251 794 l 250 794 l 256 647 l 256 0 l 150 0 l 150 917 l 288 917 l 669 306 l 768 122 l 769 122 l 764 269 l 764 917 l 869 917 "},"O":{"ha":1039,"x_min":0,"x_max":0,"o":"m 519 931 b 944 458 781 931 944 749 b 519 -14 944 168 781 -14 b 94 458 258 -14 94 168 b 519 931 94 749 258 931 m 519 826 b 211 458 329 826 211 689 b 519 90 211 228 329 90 b 828 458 710 90 828 228 b 519 826 828 689 710 826 "},"Ó":{"ha":1039,"x_min":0,"x_max":0,"o":"m 671 1238 l 551 1032 l 461 1032 l 540 1238 m 519 931 b 944 458 781 931 944 749 b 519 -14 944 168 781 -14 b 94 458 258 -14 94 168 b 519 931 94 749 258 931 m 519 826 b 211 458 329 826 211 689 b 519 90 211 228 329 90 b 828 458 710 90 828 228 b 519 826 828 689 710 826 "},"Ô":{"ha":1039,"x_min":0,"x_max":0,"o":"m 639 1022 l 519 1182 l 400 1022 l 299 1022 l 457 1254 l 582 1254 l 740 1022 m 519 931 b 944 458 781 931 944 749 b 519 -14 944 168 781 -14 b 94 458 258 -14 94 168 b 519 931 94 749 258 931 m 519 826 b 211 458 329 826 211 689 b 519 90 211 228 329 90 b 828 458 710 90 828 228 b 519 826 828 689 710 826 "},"Ö":{"ha":1039,"x_min":0,"x_max":0,"o":"m 385 1189 b 464 1110 432 1189 464 1157 b 385 1031 464 1063 432 1031 b 306 1110 338 1031 306 1063 b 385 1189 306 1157 338 1189 m 654 1189 b 733 1110 701 1189 733 1157 b 654 1031 733 1063 701 1031 b 575 1110 607 1031 575 1063 b 654 1189 575 1157 607 1189 m 519 931 b 944 458 781 931 944 749 b 519 -14 944 168 781 -14 b 94 458 258 -14 94 168 b 519 931 94 749 258 931 m 519 826 b 211 458 329 826 211 689 b 519 90 211 228 329 90 b 828 458 710 90 828 228 b 519 826 828 689 710 826 "},"Ò":{"ha":1039,"x_min":0,"x_max":0,"o":"m 565 1032 l 475 1032 l 356 1238 l 486 1238 m 519 931 b 944 458 781 931 944 749 b 519 -14 944 168 781 -14 b 94 458 258 -14 94 168 b 519 931 94 749 258 931 m 519 826 b 211 458 329 826 211 689 b 519 90 211 228 329 90 b 828 458 710 90 828 228 b 519 826 828 689 710 826 "},"Ő":{"ha":1039,"x_min":0,"x_max":0,"o":"m 564 1238 l 444 1032 l 354 1032 l 433 1238 m 810 1238 l 690 1032 l 600 1032 l 679 1238 m 519 931 b 944 458 781 931 944 749 b 519 -14 944 168 781 -14 b 94 458 258 -14 94 168 b 519 931 94 749 258 931 m 519 826 b 211 458 329 826 211 689 b 519 90 211 228 329 90 b 828 458 710 90 828 228 b 519 826 828 689 710 826 "},"Ō":{"ha":1039,"x_min":0,"x_max":0,"o":"m 761 1050 l 278 1050 l 278 1143 l 761 1143 m 519 931 b 944 458 781 931 944 749 b 519 -14 944 168 781 -14 b 94 458 258 -14 94 168 b 519 931 94 749 258 931 m 519 826 b 211 458 329 826 211 689 b 519 90 211 228 329 90 b 828 458 710 90 828 228 b 519 826 828 689 710 826 "},"Ø":{"ha":1039,"x_min":0,"x_max":0,"o":"m 822 811 b 944 458 900 729 944 608 b 519 -14 944 168 781 -14 b 289 46 431 -14 353 7 l 221 -51 l 122 -51 l 225 97 b 94 458 142 179 94 303 b 519 931 94 749 258 931 b 760 864 614 931 694 907 l 819 949 l 918 949 l 822 811 m 211 458 b 290 192 211 346 239 254 l 697 774 b 519 826 649 808 589 826 b 211 458 329 826 211 689 m 519 90 b 828 458 710 90 828 228 b 756 715 828 565 803 653 l 351 136 b 519 90 399 106 454 90 "},"Õ":{"ha":1039,"x_min":0,"x_max":0,"o":"m 769 1218 b 614 1032 760 1096 710 1032 b 422 1126 510 1032 482 1126 b 354 1031 381 1126 364 1090 l 267 1031 b 424 1217 276 1153 325 1217 b 613 1122 525 1217 557 1122 b 682 1218 654 1122 672 1158 l 769 1218 m 519 931 b 944 458 781 931 944 749 b 519 -14 944 168 781 -14 b 94 458 258 -14 94 168 b 519 931 94 749 258 931 m 519 826 b 211 458 329 826 211 689 b 519 90 211 228 329 90 b 828 458 710 90 828 228 b 519 826 828 689 710 826 "},"Œ":{"ha":1500,"x_min":0,"x_max":0,"o":"m 1428 104 l 1428 0 l 814 0 l 814 138 b 517 -14 746 40 642 -14 b 94 458 256 -14 94 168 b 522 931 94 749 253 931 b 814 782 646 931 747 878 l 814 917 l 1407 917 l 1407 813 l 915 813 l 915 517 l 1289 517 l 1289 413 l 915 413 l 915 104 m 522 90 b 814 458 696 90 814 228 b 522 826 814 689 696 826 b 211 458 324 826 211 689 b 522 90 211 228 324 90 "},"P":{"ha":847,"x_min":0,"x_max":0,"o":"m 474 917 b 782 638 658 917 782 810 b 474 358 782 465 658 358 l 261 358 l 261 0 l 150 0 l 150 917 l 474 917 m 457 463 b 665 638 601 463 665 524 b 457 813 665 751 601 813 l 261 813 l 261 463 l 457 463 "},"Þ":{"ha":871,"x_min":0,"x_max":0,"o":"m 454 753 b 796 468 682 753 796 651 b 454 183 796 286 682 183 l 261 183 l 261 0 l 150 0 l 150 917 l 261 917 l 261 753 l 454 753 m 465 288 b 679 468 610 288 679 346 b 465 649 679 590 610 649 l 261 649 l 261 288 l 465 288 "},"Q":{"ha":1039,"x_min":0,"x_max":0,"o":"m 744 -158 b 908 -107 813 -158 874 -139 l 944 -210 b 742 -271 900 -249 810 -271 b 468 -11 607 -271 481 -210 b 94 458 238 11 94 188 b 519 931 94 749 258 931 b 944 458 781 931 944 749 b 568 -11 944 186 800 10 b 744 -158 579 -136 657 -158 m 211 458 b 519 90 211 228 329 90 b 828 458 710 90 828 228 b 519 826 828 689 710 826 b 211 458 329 826 211 689 "},"R":{"ha":924,"x_min":0,"x_max":0,"o":"m 481 381 l 261 381 l 261 0 l 150 0 l 150 917 l 497 917 b 807 649 683 917 807 814 b 604 393 807 518 729 426 l 863 0 l 731 0 m 261 485 l 496 485 b 690 649 626 485 690 539 b 496 813 690 758 626 813 l 261 813 "},"Ŕ":{"ha":924,"x_min":0,"x_max":0,"o":"m 479 1032 l 389 1032 l 468 1238 l 599 1238 m 481 381 l 261 381 l 261 0 l 150 0 l 150 917 l 497 917 b 807 649 683 917 807 814 b 604 393 807 518 729 426 l 863 0 l 731 0 m 261 485 l 496 485 b 690 649 626 485 690 539 b 496 813 690 758 626 813 l 261 813 "},"Ř":{"ha":924,"x_min":0,"x_max":0,"o":"m 385 1025 l 226 1257 l 328 1257 l 447 1097 l 567 1257 l 668 1257 l 510 1025 m 481 381 l 261 381 l 261 0 l 150 0 l 150 917 l 497 917 b 807 649 683 917 807 814 b 604 393 807 518 729 426 l 863 0 l 731 0 m 261 485 l 496 485 b 690 649 626 485 690 539 b 496 813 690 758 626 813 l 261 813 "},"S":{"ha":890,"x_min":0,"x_max":0,"o":"m 444 931 b 799 736 613 931 728 864 l 703 658 b 446 826 647 779 581 826 b 219 671 300 826 219 758 b 474 508 219 585 281 542 b 807 247 719 467 807 389 b 453 -14 807 90 667 -14 b 67 185 258 -14 131 71 l 163 263 b 456 90 211 157 306 90 b 692 242 597 90 692 143 b 439 400 692 321 632 367 b 103 658 192 443 103 518 b 444 931 103 806 232 931 "},"Ś":{"ha":890,"x_min":0,"x_max":0,"o":"m 604 1238 l 485 1032 l 394 1032 l 474 1238 m 444 931 b 799 736 613 931 728 864 l 703 658 b 446 826 647 779 581 826 b 219 671 300 826 219 758 b 474 508 219 585 281 542 b 807 247 719 467 807 389 b 453 -14 807 90 667 -14 b 67 185 258 -14 131 71 l 163 263 b 456 90 211 157 306 90 b 692 242 597 90 692 143 b 439 400 692 321 632 367 b 103 658 192 443 103 518 b 444 931 103 806 232 931 "},"Š":{"ha":890,"x_min":0,"x_max":0,"o":"m 515 1025 l 390 1025 l 232 1257 l 333 1257 l 453 1097 l 572 1257 l 674 1257 m 444 931 b 799 736 613 931 728 864 l 703 658 b 446 826 647 779 581 826 b 219 671 300 826 219 758 b 474 508 219 585 281 542 b 807 247 719 467 807 389 b 453 -14 807 90 667 -14 b 67 185 258 -14 131 71 l 163 263 b 456 90 211 157 306 90 b 692 242 597 90 692 143 b 439 400 692 321 632 367 b 103 658 192 443 103 518 b 444 931 103 806 232 931 "},"ẞ":{"ha":960,"x_min":0,"x_max":0,"o":"m 622 514 b 904 257 790 514 904 421 b 619 -7 904 97 785 -7 b 382 82 504 -7 415 33 l 429 164 b 608 94 464 122 535 94 b 788 257 717 94 788 161 b 578 419 788 357 711 419 l 471 419 l 471 514 l 713 813 l 458 813 b 261 614 351 813 261 729 l 261 0 l 150 0 l 150 615 b 458 917 150 796 282 917 l 844 917 l 844 811 l 590 514 l 622 514 "},"T":{"ha":839,"x_min":0,"x_max":0,"o":"m 794 813 l 475 813 l 475 0 l 364 0 l 364 813 l 44 813 l 44 917 l 794 917 "},"Ť":{"ha":839,"x_min":0,"x_max":0,"o":"m 357 1025 l 199 1257 l 300 1257 l 419 1097 l 539 1257 l 640 1257 l 482 1025 m 794 813 l 475 813 l 475 0 l 364 0 l 364 813 l 44 813 l 44 917 l 794 917 "},"U":{"ha":1000,"x_min":0,"x_max":0,"o":"m 860 342 b 500 -14 860 106 732 -14 b 140 342 269 -14 140 106 l 140 917 l 251 917 l 251 369 b 500 90 251 178 329 90 b 749 369 671 90 749 178 l 749 917 l 860 917 "},"Ú":{"ha":1000,"x_min":0,"x_max":0,"o":"m 651 1238 l 532 1032 l 442 1032 l 521 1238 m 860 342 b 500 -14 860 106 732 -14 b 140 342 269 -14 140 106 l 140 917 l 251 917 l 251 369 b 500 90 251 178 329 90 b 749 369 671 90 749 178 l 749 917 l 860 917 "},"Û":{"ha":1000,"x_min":0,"x_max":0,"o":"m 619 1022 l 500 1182 l 381 1022 l 279 1022 l 438 1254 l 563 1254 l 721 1022 m 860 342 b 500 -14 860 106 732 -14 b 140 342 269 -14 140 106 l 140 917 l 251 917 l 251 369 b 500 90 251 178 329 90 b 749 369 671 90 749 178 l 749 917 l 860 917 "},"Ü":{"ha":1000,"x_min":0,"x_max":0,"o":"m 365 1189 b 444 1110 413 1189 444 1157 b 365 1031 444 1063 413 1031 b 286 1110 318 1031 286 1063 b 365 1189 286 1157 318 1189 m 635 1189 b 714 1110 682 1189 714 1157 b 635 1031 714 1063 682 1031 b 556 1110 588 1031 556 1063 b 635 1189 556 1157 588 1189 m 860 342 b 500 -14 860 106 732 -14 b 140 342 269 -14 140 106 l 140 917 l 251 917 l 251 369 b 500 90 251 178 329 90 b 749 369 671 90 749 178 l 749 917 l 860 917 "},"Ù":{"ha":1000,"x_min":0,"x_max":0,"o":"m 546 1032 l 456 1032 l 336 1238 l 467 1238 m 860 342 b 500 -14 860 106 732 -14 b 140 342 269 -14 140 106 l 140 917 l 251 917 l 251 369 b 500 90 251 178 329 90 b 749 369 671 90 749 178 l 749 917 l 860 917 "},"Ű":{"ha":1000,"x_min":0,"x_max":0,"o":"m 522 1240 l 403 1035 l 313 1035 l 392 1240 m 761 1238 l 642 1032 l 551 1032 l 631 1238 m 860 342 b 500 -14 860 106 732 -14 b 140 342 269 -14 140 106 l 140 917 l 251 917 l 251 369 b 500 90 251 178 329 90 b 749 369 671 90 749 178 l 749 917 l 860 917 "},"Ū":{"ha":1000,"x_min":0,"x_max":0,"o":"m 742 1050 l 258 1050 l 258 1143 l 742 1143 m 860 342 b 500 -14 860 106 732 -14 b 140 342 269 -14 140 106 l 140 917 l 251 917 l 251 369 b 500 90 251 178 329 90 b 749 369 671 90 749 178 l 749 917 l 860 917 "},"Ų":{"ha":1000,"x_min":0,"x_max":0,"o":"m 860 917 l 860 342 b 615 -3 860 149 774 33 b 481 -146 515 -54 481 -101 b 569 -219 481 -192 517 -219 b 646 -203 593 -219 624 -217 l 668 -274 b 556 -299 642 -290 596 -299 b 390 -161 456 -299 390 -242 b 471 -14 390 -97 418 -53 b 140 342 258 -3 140 115 l 140 917 l 251 917 l 251 369 b 500 90 251 178 329 90 b 749 369 671 90 749 178 l 749 917 "},"Ů":{"ha":1000,"x_min":0,"x_max":0,"o":"m 501 1239 b 675 1075 606 1239 675 1172 b 501 910 675 976 606 910 b 326 1075 397 910 326 976 b 501 1239 326 1172 397 1239 m 501 1171 b 403 1075 444 1171 403 1131 b 501 979 403 1019 444 979 b 600 1075 558 979 600 1019 b 501 1171 600 1131 558 1171 m 860 342 b 500 -14 860 106 732 -14 b 140 342 269 -14 140 106 l 140 917 l 251 917 l 251 369 b 500 90 251 178 329 90 b 749 369 671 90 749 178 l 749 917 l 860 917 "},"V":{"ha":900,"x_min":0,"x_max":0,"o":"m 514 0 l 388 0 l 39 917 l 158 917 l 392 283 l 450 101 l 508 282 l 742 917 l 861 917 "},"W":{"ha":1335,"x_min":0,"x_max":0,"o":"m 458 0 l 321 0 l 50 917 l 169 917 l 390 88 l 607 917 l 733 917 l 950 85 l 1172 917 l 1285 917 l 1015 0 l 878 0 l 715 594 l 668 801 l 667 801 l 619 594 "},"X":{"ha":835,"x_min":0,"x_max":0,"o":"m 661 0 l 413 379 l 164 0 l 35 0 l 356 467 l 63 917 l 194 917 l 428 558 l 663 917 l 781 917 l 485 472 l 790 0 "},"Y":{"ha":794,"x_min":0,"x_max":0,"o":"m 453 358 l 453 0 l 342 0 l 342 358 l 14 917 l 146 917 l 397 472 l 649 917 l 781 917 "},"Ý":{"ha":794,"x_min":0,"x_max":0,"o":"m 549 1238 l 429 1032 l 339 1032 l 418 1238 m 453 358 l 453 0 l 342 0 l 342 358 l 14 917 l 146 917 l 397 472 l 649 917 l 781 917 "},"Ÿ":{"ha":794,"x_min":0,"x_max":0,"o":"m 263 1189 b 342 1110 310 1189 342 1157 b 263 1031 342 1063 310 1031 b 183 1110 215 1031 183 1063 b 263 1189 183 1157 215 1189 m 532 1189 b 611 1110 579 1189 611 1157 b 532 1031 611 1063 579 1031 b 453 1110 485 1031 453 1063 b 532 1189 453 1157 485 1189 m 453 358 l 453 0 l 342 0 l 342 358 l 14 917 l 146 917 l 397 472 l 649 917 l 781 917 "},"Z":{"ha":875,"x_min":0,"x_max":0,"o":"m 799 104 l 799 0 l 78 0 l 78 99 l 649 813 l 92 813 l 92 917 l 781 917 l 781 818 l 210 104 "},"Ź":{"ha":875,"x_min":0,"x_max":0,"o":"m 457 1032 l 367 1032 l 446 1238 l 576 1238 m 799 104 l 799 0 l 78 0 l 78 99 l 649 813 l 92 813 l 92 917 l 781 917 l 781 818 l 210 104 "},"Ž":{"ha":875,"x_min":0,"x_max":0,"o":"m 363 1025 l 204 1257 l 306 1257 l 425 1097 l 544 1257 l 646 1257 l 488 1025 m 799 104 l 799 0 l 78 0 l 78 99 l 649 813 l 92 813 l 92 917 l 781 917 l 781 818 l 210 104 "},"Ż":{"ha":875,"x_min":0,"x_max":0,"o":"m 425 1050 b 342 1133 375 1050 342 1083 b 425 1217 342 1183 375 1217 b 508 1133 475 1217 508 1183 b 425 1050 508 1083 475 1050 m 799 104 l 799 0 l 78 0 l 78 99 l 649 813 l 92 813 l 92 917 l 781 917 l 781 818 l 210 104 "},"Ģ":{"ha":1006,"x_min":0,"x_max":0,"o":"m 896 463 l 896 0 l 813 0 l 808 124 b 519 -14 756 38 660 -14 b 94 458 258 -14 94 168 b 522 931 94 749 265 931 b 889 721 704 931 818 863 l 788 665 b 522 826 747 771 650 826 b 211 458 336 826 211 689 b 524 90 211 228 319 90 b 794 326 676 90 794 168 l 794 358 l 503 358 l 503 463 m 488 -106 l 604 -106 l 514 -329 l 426 -329 "},"Ķ":{"ha":911,"x_min":0,"x_max":0,"o":"m 872 0 l 739 0 l 425 461 l 261 294 l 261 0 l 150 0 l 150 917 l 261 917 l 261 444 l 722 917 l 868 917 l 503 543 m 443 -106 l 560 -106 l 469 -329 l 382 -329 "},"Ļ":{"ha":831,"x_min":0,"x_max":0,"o":"m 786 104 l 786 0 l 150 0 l 150 917 l 261 917 l 261 104 m 428 -106 l 544 -106 l 454 -329 l 367 -329 "},"Ņ":{"ha":1019,"x_min":0,"x_max":0,"o":"m 869 0 l 732 0 l 349 614 l 251 794 l 250 794 l 256 647 l 256 0 l 150 0 l 150 917 l 288 917 l 669 306 l 768 122 l 769 122 l 764 269 l 764 917 l 869 917 m 503 -329 l 415 -329 l 476 -106 l 593 -106 "},"Ŗ":{"ha":924,"x_min":0,"x_max":0,"o":"m 863 0 l 731 0 l 481 381 l 261 381 l 261 0 l 150 0 l 150 917 l 497 917 b 807 649 683 917 807 814 b 604 393 807 518 729 426 m 261 485 l 496 485 b 690 649 626 485 690 539 b 496 813 690 758 626 813 l 261 813 m 432 -106 l 549 -106 l 458 -329 l 371 -329 "},"Ş":{"ha":890,"x_min":0,"x_max":0,"o":"m 807 247 b 536 -8 807 111 703 15 b 613 -150 586 -47 613 -100 b 451 -299 613 -228 554 -299 b 299 -250 386 -299 338 -285 l 340 -174 b 436 -215 363 -197 397 -215 b 515 -135 481 -215 515 -183 b 414 -12 515 -83 493 -53 b 67 185 242 -1 126 79 l 163 263 b 456 90 211 157 306 90 b 692 242 597 90 692 143 b 439 400 692 321 632 367 b 103 658 192 443 103 518 b 444 931 103 806 232 931 b 799 736 613 931 728 864 l 703 658 b 446 826 647 779 581 826 b 219 671 300 826 219 758 b 474 508 219 585 281 542 b 807 247 719 467 807 389 "},"Ţ":{"ha":839,"x_min":0,"x_max":0,"o":"m 475 813 l 475 13 b 574 -151 547 -37 574 -93 b 411 -299 574 -228 511 -299 b 258 -250 346 -299 297 -285 l 300 -174 b 396 -215 322 -197 357 -215 b 475 -135 440 -215 475 -183 b 364 0 475 -82 444 -54 l 364 813 l 44 813 l 44 917 l 794 917 l 794 813 "},"Ș":{"ha":890,"x_min":0,"x_max":0,"o":"m 444 931 b 799 736 613 931 728 864 l 703 658 b 446 826 647 779 581 826 b 219 671 300 826 219 758 b 474 508 219 585 281 542 b 807 247 719 467 807 389 b 453 -14 807 90 667 -14 b 67 185 258 -14 131 71 l 163 263 b 456 90 211 157 306 90 b 692 242 597 90 692 143 b 439 400 692 321 632 367 b 103 658 192 443 103 518 b 444 931 103 806 232 931 m 450 -329 l 363 -329 l 424 -106 l 540 -106 "},"Ț":{"ha":839,"x_min":0,"x_max":0,"o":"m 794 813 l 475 813 l 475 0 l 364 0 l 364 813 l 44 813 l 44 917 l 794 917 m 367 -106 l 483 -106 l 393 -329 l 306 -329 "},"a":{"ha":786,"x_min":0,"x_max":0,"o":"m 699 81 b 754 88 717 81 738 83 l 747 0 b 664 -14 728 -7 699 -14 b 539 89 596 -14 551 11 b 315 -14 494 24 404 -14 b 79 172 185 -14 79 47 b 350 389 79 276 171 358 l 535 419 l 535 458 b 372 611 535 550 476 611 b 174 479 281 611 211 567 l 92 539 b 372 708 128 642 238 708 b 646 472 531 708 646 633 l 646 131 b 699 81 646 97 660 81 m 321 83 b 535 233 432 83 535 142 l 535 329 l 379 300 b 194 172 257 278 194 238 b 321 83 194 114 242 83 "},"á":{"ha":786,"x_min":0,"x_max":0,"o":"m 406 810 l 315 810 l 421 1042 l 542 1042 m 699 81 b 754 88 717 81 738 83 l 747 0 b 664 -14 728 -7 699 -14 b 539 89 596 -14 551 11 b 315 -14 494 24 404 -14 b 79 172 185 -14 79 47 b 350 389 79 276 171 358 l 535 419 l 535 458 b 372 611 535 550 476 611 b 174 479 281 611 211 567 l 92 539 b 372 708 128 642 238 708 b 646 472 531 708 646 633 l 646 131 b 699 81 646 97 660 81 m 321 83 b 535 233 432 83 535 142 l 535 329 l 379 300 b 194 172 257 278 194 238 b 321 83 194 114 242 83 "},"ă":{"ha":786,"x_min":0,"x_max":0,"o":"m 383 801 b 178 1007 261 801 178 885 l 269 1007 b 383 885 269 942 318 885 b 497 1007 449 885 497 942 l 589 1007 b 383 801 589 885 506 801 m 699 81 b 754 88 717 81 738 83 l 747 0 b 664 -14 728 -7 699 -14 b 539 89 596 -14 551 11 b 315 -14 494 24 404 -14 b 79 172 185 -14 79 47 b 350 389 79 276 171 358 l 535 419 l 535 458 b 372 611 535 550 476 611 b 174 479 281 611 211 567 l 92 539 b 372 708 128 642 238 708 b 646 472 531 708 646 633 l 646 131 b 699 81 646 97 660 81 m 321 83 b 535 233 432 83 535 142 l 535 329 l 379 300 b 194 172 257 278 194 238 b 321 83 194 114 242 83 "},"â":{"ha":786,"x_min":0,"x_max":0,"o":"m 265 800 l 164 800 l 319 1032 l 447 1032 l 603 800 l 501 800 l 383 954 m 699 81 b 754 88 717 81 738 83 l 747 0 b 664 -14 728 -7 699 -14 b 539 89 596 -14 551 11 b 315 -14 494 24 404 -14 b 79 172 185 -14 79 47 b 350 389 79 276 171 358 l 535 419 l 535 458 b 372 611 535 550 476 611 b 174 479 281 611 211 567 l 92 539 b 372 708 128 642 238 708 b 646 472 531 708 646 633 l 646 131 b 699 81 646 97 660 81 m 321 83 b 535 233 432 83 535 142 l 535 329 l 379 300 b 194 172 257 278 194 238 b 321 83 194 114 242 83 "},"ä":{"ha":786,"x_min":0,"x_max":0,"o":"m 249 808 b 169 888 201 808 169 840 b 249 967 169 935 201 967 b 328 888 296 967 328 935 b 249 808 328 840 296 808 m 518 808 b 439 888 471 808 439 840 b 518 967 439 935 471 967 b 597 888 565 967 597 935 b 518 808 597 840 565 808 m 699 81 b 754 88 717 81 738 83 l 747 0 b 664 -14 728 -7 699 -14 b 539 89 596 -14 551 11 b 315 -14 494 24 404 -14 b 79 172 185 -14 79 47 b 350 389 79 276 171 358 l 535 419 l 535 458 b 372 611 535 550 476 611 b 174 479 281 611 211 567 l 92 539 b 372 708 128 642 238 708 b 646 472 531 708 646 633 l 646 131 b 699 81 646 97 660 81 m 321 83 b 535 233 432 83 535 142 l 535 329 l 379 300 b 194 172 257 278 194 238 b 321 83 194 114 242 83 "},"à":{"ha":786,"x_min":0,"x_max":0,"o":"m 351 810 l 215 1042 l 336 1042 l 442 810 m 699 81 b 754 88 717 81 738 83 l 747 0 b 664 -14 728 -7 699 -14 b 539 89 596 -14 551 11 b 315 -14 494 24 404 -14 b 79 172 185 -14 79 47 b 350 389 79 276 171 358 l 535 419 l 535 458 b 372 611 535 550 476 611 b 174 479 281 611 211 567 l 92 539 b 372 708 128 642 238 708 b 646 472 531 708 646 633 l 646 131 b 699 81 646 97 660 81 m 321 83 b 535 233 432 83 535 142 l 535 329 l 379 300 b 194 172 257 278 194 238 b 321 83 194 114 242 83 "},"ā":{"ha":786,"x_min":0,"x_max":0,"o":"m 625 828 l 142 828 l 142 921 l 625 921 m 699 81 b 754 88 717 81 738 83 l 747 0 b 664 -14 728 -7 699 -14 b 539 89 596 -14 551 11 b 315 -14 494 24 404 -14 b 79 172 185 -14 79 47 b 350 389 79 276 171 358 l 535 419 l 535 458 b 372 611 535 550 476 611 b 174 479 281 611 211 567 l 92 539 b 372 708 128 642 238 708 b 646 472 531 708 646 633 l 646 131 b 699 81 646 97 660 81 m 321 83 b 535 233 432 83 535 142 l 535 329 l 379 300 b 194 172 257 278 194 238 b 321 83 194 114 242 83 "},"ą":{"ha":786,"x_min":0,"x_max":0,"o":"m 656 -219 b 732 -203 679 -219 710 -217 l 754 -274 b 647 -299 728 -290 688 -299 b 485 -165 547 -299 485 -246 b 610 4 485 -89 531 -36 b 542 94 581 21 554 49 b 315 -14 500 26 406 -14 b 79 172 185 -14 79 47 b 350 389 79 276 171 358 l 535 419 l 535 458 b 372 611 535 550 476 611 b 174 479 281 611 211 567 l 92 539 b 372 708 128 642 238 708 b 646 472 531 708 646 633 l 646 131 b 699 81 646 97 660 81 b 754 88 717 81 738 83 l 747 0 b 732 -6 743 -1 738 -3 b 575 -146 608 -46 575 -93 b 656 -219 575 -192 603 -219 m 321 83 b 535 233 432 83 535 142 l 535 329 l 379 300 b 194 172 257 275 194 238 b 321 83 194 114 242 83 "},"å":{"ha":786,"x_min":0,"x_max":0,"o":"m 379 799 b 204 964 275 799 204 865 b 379 1128 204 1061 275 1128 b 553 964 483 1128 553 1061 b 379 799 553 865 483 799 m 379 1060 b 281 964 322 1060 281 1019 b 379 868 281 908 322 868 b 478 964 436 868 478 908 b 379 1060 478 1019 436 1060 m 699 81 b 754 88 717 81 738 83 l 747 0 b 664 -14 728 -7 699 -14 b 539 89 596 -14 551 11 b 315 -14 494 24 404 -14 b 79 172 185 -14 79 47 b 350 389 79 276 171 358 l 535 419 l 535 458 b 372 611 535 550 476 611 b 174 479 281 611 211 567 l 92 539 b 372 708 128 642 238 708 b 646 472 531 708 646 633 l 646 131 b 699 81 646 97 660 81 m 321 83 b 535 233 432 83 535 142 l 535 329 l 379 300 b 194 172 257 278 194 238 b 321 83 194 114 242 83 "},"ã":{"ha":786,"x_min":0,"x_max":0,"o":"m 286 904 b 218 808 244 904 228 868 l 131 808 b 288 994 140 931 189 994 b 476 900 389 994 421 900 b 546 996 518 900 536 936 l 633 996 b 478 810 624 874 574 810 b 286 904 374 810 346 904 m 699 81 b 754 88 717 81 738 83 l 747 0 b 664 -14 728 -7 699 -14 b 539 89 596 -14 551 11 b 315 -14 494 24 404 -14 b 79 172 185 -14 79 47 b 350 389 79 276 171 358 l 535 419 l 535 458 b 372 611 535 550 476 611 b 174 479 281 611 211 567 l 92 539 b 372 708 128 642 238 708 b 646 472 531 708 646 633 l 646 131 b 699 81 646 97 660 81 m 321 83 b 535 233 432 83 535 142 l 535 329 l 379 300 b 194 172 257 278 194 238 b 321 83 194 114 242 83 "},"æ":{"ha":1228,"x_min":0,"x_max":0,"o":"m 1146 383 b 1140 306 1146 351 1143 325 l 644 306 b 857 83 660 165 744 83 b 1039 186 958 83 1014 119 l 1132 138 b 857 -14 1079 43 1007 -14 b 589 157 732 -14 635 39 b 306 -14 550 43 438 -14 b 79 172 169 -14 79 58 b 338 379 79 276 167 357 l 544 406 l 544 458 b 374 611 544 550 483 611 b 174 479 282 611 211 567 l 92 539 b 376 708 132 646 243 708 b 608 567 485 708 567 660 b 849 708 658 654 742 708 b 1146 383 1050 708 1146 563 m 849 611 b 647 404 740 611 664 535 l 1039 404 b 849 611 1026 532 967 611 m 325 83 b 544 275 439 83 544 156 l 544 318 l 367 290 b 194 172 244 271 194 238 b 325 83 194 113 240 83 "},"b":{"ha":875,"x_min":0,"x_max":0,"o":"m 471 708 b 788 347 664 708 788 574 b 471 -14 788 121 664 -14 b 233 121 361 -14 274 42 l 226 0 l 129 0 l 129 1014 l 240 1014 l 240 586 b 471 708 283 658 367 708 m 458 83 b 676 347 594 83 676 186 b 458 611 676 508 594 611 b 240 356 326 611 240 513 l 240 339 b 458 83 240 182 326 83 "},"c":{"ha":783,"x_min":0,"x_max":0,"o":"m 422 708 b 710 524 565 708 658 638 l 604 474 b 419 611 575 563 515 611 b 197 347 281 611 197 513 b 419 83 197 182 281 83 b 614 226 528 83 593 135 l 717 190 b 422 -14 669 63 569 -14 b 86 347 213 -14 86 122 b 422 708 86 572 213 708 "},"ć":{"ha":783,"x_min":0,"x_max":0,"o":"m 569 1042 l 433 810 l 343 810 l 449 1042 m 422 708 b 710 524 565 708 658 638 l 604 474 b 419 611 575 563 515 611 b 197 347 281 611 197 513 b 419 83 197 182 281 83 b 614 226 528 83 593 135 l 717 190 b 422 -14 669 63 569 -14 b 86 347 213 -14 86 122 b 422 708 86 572 213 708 "},"č":{"ha":783,"x_min":0,"x_max":0,"o":"m 475 810 l 347 810 l 192 1042 l 293 1042 l 411 888 l 529 1042 l 631 1042 m 422 708 b 710 524 565 708 658 638 l 604 474 b 419 611 575 563 515 611 b 197 347 281 611 197 513 b 419 83 197 182 281 83 b 614 226 528 83 593 135 l 717 190 b 422 -14 669 63 569 -14 b 86 347 213 -14 86 122 b 422 708 86 572 213 708 "},"ç":{"ha":783,"x_min":0,"x_max":0,"o":"m 717 190 b 488 -8 676 82 599 11 b 564 -150 539 -49 564 -100 b 403 -299 564 -228 506 -299 b 250 -250 338 -299 289 -285 l 292 -174 b 388 -215 314 -197 349 -215 b 467 -135 432 -215 467 -183 b 358 -10 467 -82 443 -51 b 86 347 188 17 86 146 b 422 708 86 572 213 708 b 710 524 565 708 658 638 l 604 474 b 419 611 575 563 515 611 b 197 347 281 611 197 513 b 419 83 197 182 281 83 b 614 226 528 83 593 135 l 717 190 "},"d":{"ha":875,"x_min":0,"x_max":0,"o":"m 746 1014 l 746 0 l 649 0 l 642 121 b 404 -14 601 42 514 -14 b 88 347 211 -14 88 121 b 404 708 88 574 211 708 b 635 586 508 708 592 658 l 635 1014 m 417 83 b 635 339 549 83 635 182 l 635 356 b 417 611 635 513 549 611 b 199 347 281 611 199 508 b 417 83 199 186 281 83 "},"ð":{"ha":861,"x_min":0,"x_max":0,"o":"m 629 846 b 758 400 717 729 758 581 b 414 -14 758 158 649 -14 b 86 331 213 -14 86 115 b 411 674 86 544 226 674 b 646 576 519 674 596 639 b 533 824 624 674 590 753 l 275 757 l 261 825 l 486 875 b 285 1014 435 924 369 969 l 439 1014 b 585 899 494 981 543 943 l 738 942 l 757 872 l 629 846 m 419 83 b 650 331 565 83 650 200 b 426 576 650 483 565 576 b 201 331 286 576 201 483 b 419 83 201 175 286 83 "},"ď":{"ha":890,"x_min":0,"x_max":0,"o":"m 635 1014 l 746 1014 l 746 0 l 649 0 l 642 121 b 404 -14 601 42 514 -14 b 88 347 211 -14 88 121 b 404 708 88 574 211 708 b 635 586 508 708 592 658 m 957 1014 l 900 740 l 824 740 l 851 1014 m 417 83 b 635 339 549 83 635 182 l 635 356 b 417 611 635 513 549 611 b 199 347 281 611 199 508 b 417 83 199 186 281 83 "},"đ":{"ha":874,"x_min":0,"x_max":0,"o":"m 853 786 l 746 786 l 746 0 l 649 0 l 642 121 b 404 -14 601 42 514 -14 b 88 347 211 -14 88 121 b 404 708 88 574 211 708 b 635 586 508 708 592 658 l 635 786 l 417 786 l 417 871 l 635 871 l 635 1014 l 746 1014 l 746 871 l 853 871 m 417 83 b 635 339 549 83 635 182 l 635 356 b 417 611 635 513 549 611 b 199 347 281 611 199 508 b 417 83 199 186 281 83 "},"e":{"ha":807,"x_min":0,"x_max":0,"o":"m 725 383 b 719 306 725 351 722 325 l 196 306 b 422 83 210 165 294 83 b 618 186 524 83 593 119 l 711 138 b 422 -14 658 43 572 -14 b 86 347 213 -14 86 122 b 414 708 86 572 204 708 b 725 383 615 708 725 563 m 414 611 b 197 404 290 611 214 535 l 618 404 b 414 611 603 532 532 611 "},"é":{"ha":807,"x_min":0,"x_max":0,"o":"m 432 810 l 342 810 l 447 1042 l 568 1042 m 725 383 b 719 306 725 351 722 325 l 196 306 b 422 83 210 165 294 83 b 618 186 524 83 593 119 l 711 138 b 422 -14 658 43 572 -14 b 86 347 213 -14 86 122 b 414 708 86 572 204 708 b 725 383 615 708 725 563 m 414 611 b 197 404 290 611 214 535 l 618 404 b 414 611 603 532 532 611 "},"ě":{"ha":807,"x_min":0,"x_max":0,"o":"m 346 810 l 190 1042 l 292 1042 l 410 888 l 528 1042 l 629 1042 l 474 810 m 725 383 b 719 306 725 351 722 325 l 196 306 b 422 83 210 165 294 83 b 618 186 524 83 593 119 l 711 138 b 422 -14 658 43 572 -14 b 86 347 213 -14 86 122 b 414 708 86 572 204 708 b 725 383 615 708 725 563 m 414 611 b 197 404 290 611 214 535 l 618 404 b 414 611 603 532 532 611 "},"ê":{"ha":807,"x_min":0,"x_max":0,"o":"m 292 800 l 190 800 l 346 1032 l 474 1032 l 629 800 l 528 800 l 410 954 m 725 383 b 719 306 725 351 722 325 l 196 306 b 422 83 210 165 294 83 b 618 186 524 83 593 119 l 711 138 b 422 -14 658 43 572 -14 b 86 347 213 -14 86 122 b 414 708 86 572 204 708 b 725 383 615 708 725 563 m 414 611 b 197 404 290 611 214 535 l 618 404 b 414 611 603 532 532 611 "},"ë":{"ha":807,"x_min":0,"x_max":0,"o":"m 275 808 b 196 888 228 808 196 840 b 275 967 196 935 228 967 b 354 888 322 967 354 935 b 275 808 354 840 322 808 m 544 808 b 465 888 497 808 465 840 b 544 967 465 935 497 967 b 624 888 592 967 624 935 b 544 808 624 840 592 808 m 725 383 b 719 306 725 351 722 325 l 196 306 b 422 83 210 165 294 83 b 618 186 524 83 593 119 l 711 138 b 422 -14 658 43 572 -14 b 86 347 213 -14 86 122 b 414 708 86 572 204 708 b 725 383 615 708 725 563 m 414 611 b 197 404 290 611 214 535 l 618 404 b 414 611 603 532 532 611 "},"ė":{"ha":807,"x_min":0,"x_max":0,"o":"m 410 828 b 326 911 360 828 326 861 b 410 994 326 961 360 994 b 493 911 460 994 493 961 b 410 828 493 861 460 828 m 725 383 b 719 306 725 351 722 325 l 196 306 b 422 83 210 165 294 83 b 618 186 524 83 593 119 l 711 138 b 422 -14 658 43 572 -14 b 86 347 213 -14 86 122 b 414 708 86 572 204 708 b 725 383 615 708 725 563 m 414 611 b 197 404 290 611 214 535 l 618 404 b 414 611 603 532 532 611 "},"è":{"ha":807,"x_min":0,"x_max":0,"o":"m 378 810 l 242 1042 l 363 1042 l 468 810 m 725 383 b 719 306 725 351 722 325 l 196 306 b 422 83 210 165 294 83 b 618 186 524 83 593 119 l 711 138 b 422 -14 658 43 572 -14 b 86 347 213 -14 86 122 b 414 708 86 572 204 708 b 725 383 615 708 725 563 m 414 611 b 197 404 290 611 214 535 l 618 404 b 414 611 603 532 532 611 "},"ē":{"ha":807,"x_min":0,"x_max":0,"o":"m 651 828 l 168 828 l 168 921 l 651 921 m 725 383 b 719 306 725 351 722 325 l 196 306 b 422 83 210 165 294 83 b 618 186 524 83 593 119 l 711 138 b 422 -14 658 43 572 -14 b 86 347 213 -14 86 122 b 414 708 86 572 204 708 b 725 383 615 708 725 563 m 414 611 b 197 404 290 611 214 535 l 618 404 b 414 611 603 532 532 611 "},"ę":{"ha":807,"x_min":0,"x_max":0,"o":"m 725 383 b 719 306 725 351 722 325 l 196 306 b 422 83 210 165 294 83 b 618 186 524 83 593 119 l 711 138 b 551 4 676 74 625 28 b 428 -140 467 -49 428 -94 b 515 -219 428 -190 464 -219 b 592 -203 539 -219 569 -217 l 614 -274 b 501 -299 588 -290 542 -299 b 336 -157 401 -299 336 -240 b 414 -14 336 -99 365 -54 b 86 347 210 -10 86 125 b 414 708 86 572 204 708 b 725 383 615 708 725 563 m 414 611 b 197 404 290 611 214 535 l 618 404 b 414 611 603 532 532 611 "},"f":{"ha":546,"x_min":0,"x_max":0,"o":"m 294 694 l 526 694 l 526 599 l 294 599 l 294 0 l 183 0 l 183 599 l 44 599 l 44 694 l 183 694 l 183 811 b 411 1021 183 935 258 1021 b 529 989 460 1021 504 1010 l 500 899 b 421 919 478 913 453 919 b 294 800 340 919 294 883 "},"g":{"ha":763,"x_min":0,"x_max":0,"o":"m 517 89 b 726 -76 649 89 726 24 b 383 -299 726 -214 571 -299 b 64 -115 164 -299 64 -219 b 186 19 64 -51 110 -1 b 92 147 133 44 92 86 b 196 283 92 219 135 263 b 94 474 129 325 94 393 b 379 708 94 611 213 708 b 521 681 432 708 479 699 b 717 822 547 776 613 822 l 742 725 b 576 649 649 725 596 699 b 664 474 632 607 664 546 b 379 239 664 336 546 239 b 272 251 339 239 303 243 b 194 164 217 239 194 211 b 286 89 194 115 232 89 l 517 89 m 379 618 b 210 474 283 618 210 560 b 379 329 210 388 283 329 b 549 474 475 329 549 388 b 379 618 549 560 475 618 m 396 -206 b 624 -89 543 -206 624 -150 b 486 -7 624 -39 590 -7 l 300 -7 b 167 -93 213 -7 167 -40 b 396 -206 167 -161 243 -206 "},"ğ":{"ha":739,"x_min":0,"x_max":0,"o":"m 385 801 b 179 1007 263 801 179 885 l 271 1007 b 385 885 271 942 319 885 b 499 1007 450 885 499 942 l 590 1007 b 385 801 590 885 507 801 m 503 89 b 713 -76 635 89 713 24 b 369 -299 713 -214 557 -299 b 50 -115 150 -299 50 -219 b 172 19 50 -51 96 -1 b 78 147 119 44 78 86 b 182 283 78 219 121 263 b 81 474 115 325 81 393 b 365 708 81 611 199 708 b 522 674 425 708 478 696 b 714 822 536 767 615 822 l 739 725 b 589 625 649 725 593 694 b 650 474 628 585 650 533 b 365 239 650 336 532 239 b 258 251 325 239 289 243 b 181 164 203 239 181 211 b 272 89 181 115 218 89 l 503 89 m 365 618 b 196 474 269 618 196 560 b 365 329 196 388 269 329 b 535 474 461 329 535 388 b 365 618 535 560 461 618 m 382 -206 b 610 -89 529 -206 610 -150 b 472 -7 610 -39 576 -7 l 286 -7 b 153 -93 199 -7 153 -40 b 382 -206 153 -161 229 -206 "},"h":{"ha":860,"x_min":0,"x_max":0,"o":"m 467 708 b 738 444 615 708 738 624 l 738 0 l 626 0 l 626 406 b 456 611 626 560 551 611 b 240 368 354 611 240 546 l 240 0 l 129 0 l 129 1014 l 240 1014 l 240 590 b 467 708 289 674 372 708 "},"i":{"ha":369,"x_min":0,"x_max":0,"o":"m 185 828 b 101 911 135 828 101 861 b 185 994 101 961 135 994 b 268 911 235 994 268 961 b 185 828 268 861 235 828 m 240 0 l 129 0 l 129 694 l 240 694 "},"ı":{"ha":369,"x_min":0,"x_max":0,"o":"m 240 0 l 129 0 l 129 694 l 240 694 "},"í":{"ha":369,"x_min":0,"x_max":0,"o":"m 357 1042 l 221 810 l 131 810 l 236 1042 m 240 0 l 129 0 l 129 694 l 240 694 "},"î":{"ha":369,"x_min":0,"x_max":0,"o":"m 303 800 l 185 954 l 67 800 l -35 800 l 121 1032 l 249 1032 l 404 800 m 240 0 l 129 0 l 129 694 l 240 694 "},"ï":{"ha":369,"x_min":0,"x_max":0,"o":"m 74 808 b -6 888 26 808 -6 840 b 74 967 -6 935 26 967 b 154 888 122 967 154 935 b 74 808 154 840 122 808 m 296 808 b 215 888 247 808 215 840 b 296 967 215 935 247 967 b 375 888 343 967 375 935 b 296 808 375 840 343 808 m 240 0 l 129 0 l 129 694 l 240 694 "},"ì":{"ha":369,"x_min":0,"x_max":0,"o":"m 243 810 l 153 810 l 17 1042 l 138 1042 m 240 0 l 129 0 l 129 694 l 240 694 "},"ĳ":{"ha":739,"x_min":0,"x_max":0,"o":"m 185 828 b 101 911 135 828 101 861 b 185 994 101 961 135 994 b 268 911 235 994 268 961 b 185 828 268 861 235 828 m 554 994 b 638 911 600 994 638 957 b 554 828 638 865 600 828 b 471 911 508 828 471 865 b 554 994 471 957 508 994 m 240 0 l 129 0 l 129 694 l 240 694 m 610 -71 b 399 -299 610 -244 493 -299 b 260 -253 342 -299 292 -279 l 283 -147 b 397 -190 310 -171 349 -190 b 499 -60 457 -190 499 -157 l 499 694 l 610 694 "},"ī":{"ha":369,"x_min":0,"x_max":0,"o":"m 339 828 l 31 828 l 31 921 l 339 921 m 240 0 l 129 0 l 129 694 l 240 694 "},"į":{"ha":369,"x_min":0,"x_max":0,"o":"m 185 828 b 101 911 135 828 101 861 b 185 994 101 961 135 994 b 268 911 235 994 268 961 b 185 828 268 861 235 828 m 290 -269 b 172 -299 260 -289 224 -299 b 11 -162 74 -299 11 -246 b 129 3 11 -96 51 -44 l 129 694 l 240 694 l 240 0 b 103 -151 132 -61 103 -100 b 182 -221 103 -192 131 -221 b 264 -200 208 -221 242 -214 "},"j":{"ha":369,"x_min":0,"x_max":0,"o":"m 185 994 b 268 911 231 994 268 957 b 185 828 268 865 231 828 b 101 911 139 828 101 865 b 185 994 101 957 139 994 m 240 -71 b 29 -299 240 -244 124 -299 b -110 -253 -28 -299 -78 -279 l -86 -147 b 28 -190 -60 -171 -21 -190 b 129 -60 88 -190 129 -157 l 129 694 l 240 694 "},"k":{"ha":788,"x_min":0,"x_max":0,"o":"m 388 343 l 240 196 l 240 0 l 129 0 l 129 1014 l 240 1014 l 240 335 l 600 694 l 739 694 l 468 424 l 756 0 l 621 0 "},"l":{"ha":425,"x_min":0,"x_max":0,"o":"m 235 186 b 310 93 235 115 253 93 b 411 113 347 93 371 97 l 393 6 b 290 -14 364 -7 326 -14 b 124 172 178 -14 124 46 l 124 1014 l 235 1014 "},"ĺ":{"ha":438,"x_min":0,"x_max":0,"o":"m 303 1292 l 218 1111 l 129 1111 l 181 1292 m 235 186 b 310 93 235 115 253 93 b 411 113 347 93 371 97 l 393 6 b 290 -14 364 -7 326 -14 b 124 172 178 -14 124 46 l 124 1014 l 235 1014 "},"ľ":{"ha":438,"x_min":0,"x_max":0,"o":"m 235 186 b 310 93 235 115 253 93 b 411 113 347 93 371 97 l 393 6 b 290 -14 364 -7 326 -14 b 124 172 178 -14 124 46 l 124 1014 l 235 1014 m 390 740 l 314 740 l 342 1014 l 447 1014 "},"ŀ":{"ha":565,"x_min":0,"x_max":0,"o":"m 235 186 b 310 93 235 115 253 93 b 411 113 347 93 371 97 l 393 6 b 290 -14 364 -7 326 -14 b 124 172 178 -14 124 46 l 124 1014 l 235 1014 m 464 583 b 554 493 518 583 554 547 b 464 403 554 439 518 403 b 374 493 410 403 374 439 b 464 583 374 547 410 583 "},"ł":{"ha":517,"x_min":0,"x_max":0,"o":"m 374 93 b 475 113 411 93 435 97 l 457 6 b 354 -14 428 -7 390 -14 b 188 172 242 -14 188 46 l 188 403 l 54 318 l 54 433 l 188 518 l 188 1014 l 299 1014 l 299 589 l 465 694 l 465 579 l 299 474 l 299 186 b 374 93 299 115 317 93 "},"m":{"ha":1324,"x_min":0,"x_max":0,"o":"m 936 708 b 1201 444 1069 708 1201 628 l 1201 0 l 1090 0 l 1090 433 b 926 611 1090 560 1018 611 b 721 381 818 611 721 529 l 721 0 l 610 0 l 610 433 b 446 611 610 560 538 611 b 240 371 354 611 240 543 l 240 0 l 129 0 l 129 694 l 226 694 l 233 586 b 456 708 283 671 369 708 b 694 572 553 708 649 665 b 936 708 738 667 849 708 "},"n":{"ha":860,"x_min":0,"x_max":0,"o":"m 467 708 b 738 444 615 708 738 624 l 738 0 l 626 0 l 626 406 b 456 611 626 560 551 611 b 240 369 354 611 240 547 l 240 0 l 129 0 l 129 694 l 226 694 l 233 586 b 467 708 282 674 371 708 "},"ń":{"ha":860,"x_min":0,"x_max":0,"o":"m 464 810 l 374 810 l 479 1042 l 600 1042 m 467 708 b 738 444 615 708 738 624 l 738 0 l 626 0 l 626 406 b 456 611 626 560 551 611 b 240 369 354 611 240 547 l 240 0 l 129 0 l 129 694 l 226 694 l 233 586 b 467 708 282 674 371 708 "},"ň":{"ha":860,"x_min":0,"x_max":0,"o":"m 378 810 l 222 1042 l 324 1042 l 442 888 l 560 1042 l 661 1042 l 506 810 m 467 708 b 738 444 615 708 738 624 l 738 0 l 626 0 l 626 406 b 456 611 626 560 551 611 b 240 369 354 611 240 547 l 240 0 l 129 0 l 129 694 l 226 694 l 233 586 b 467 708 282 674 371 708 "},"ñ":{"ha":860,"x_min":0,"x_max":0,"o":"m 344 904 b 276 808 303 904 286 868 l 189 808 b 346 994 199 931 247 994 b 535 900 447 994 479 900 b 604 996 576 900 594 936 l 692 996 b 536 810 682 874 632 810 b 344 904 432 810 404 904 m 467 708 b 738 444 615 708 738 624 l 738 0 l 626 0 l 626 406 b 456 611 626 560 551 611 b 240 369 354 611 240 547 l 240 0 l 129 0 l 129 694 l 226 694 l 233 586 b 467 708 282 674 371 708 "},"o":{"ha":844,"x_min":0,"x_max":0,"o":"m 422 708 b 758 347 632 708 758 572 b 422 -14 758 122 632 -14 b 86 347 213 -14 86 122 b 422 708 86 572 213 708 m 422 613 b 197 347 282 613 197 513 b 422 82 197 182 282 82 b 647 347 563 82 647 182 b 422 613 647 513 563 613 "},"ó":{"ha":844,"x_min":0,"x_max":0,"o":"m 581 1042 l 444 810 l 354 810 l 460 1042 m 422 708 b 758 347 632 708 758 572 b 422 -14 758 122 632 -14 b 86 347 213 -14 86 122 b 422 708 86 572 213 708 m 422 613 b 197 347 282 613 197 513 b 422 82 197 182 282 82 b 647 347 563 82 647 182 b 422 613 647 513 563 613 "},"ô":{"ha":844,"x_min":0,"x_max":0,"o":"m 540 800 l 422 954 l 304 800 l 203 800 l 358 1032 l 486 1032 l 642 800 m 422 708 b 758 347 632 708 758 572 b 422 -14 758 122 632 -14 b 86 347 213 -14 86 122 b 422 708 86 572 213 708 m 422 613 b 197 347 282 613 197 513 b 422 82 197 182 282 82 b 647 347 563 82 647 182 b 422 613 647 513 563 613 "},"ö":{"ha":844,"x_min":0,"x_max":0,"o":"m 288 967 b 367 888 335 967 367 935 b 288 808 367 840 335 808 b 208 888 240 808 208 840 b 288 967 208 935 240 967 m 557 967 b 636 888 604 967 636 935 b 557 808 636 840 604 808 b 478 888 510 808 478 840 b 557 967 478 935 510 967 m 422 708 b 758 347 632 708 758 572 b 422 -14 758 122 632 -14 b 86 347 213 -14 86 122 b 422 708 86 572 213 708 m 422 613 b 197 347 282 613 197 513 b 422 82 197 182 282 82 b 647 347 563 82 647 182 b 422 613 647 513 563 613 "},"ò":{"ha":844,"x_min":0,"x_max":0,"o":"m 481 810 l 390 810 l 254 1042 l 375 1042 m 422 708 b 758 347 632 708 758 572 b 422 -14 758 122 632 -14 b 86 347 213 -14 86 122 b 422 708 86 572 213 708 m 422 613 b 197 347 282 613 197 513 b 422 82 197 182 282 82 b 647 347 563 82 647 182 b 422 613 647 513 563 613 "},"ő":{"ha":844,"x_min":0,"x_max":0,"o":"m 317 810 l 226 810 l 332 1042 l 453 1042 m 561 810 l 471 810 l 576 1042 l 697 1042 m 422 708 b 758 347 632 708 758 572 b 422 -14 758 122 632 -14 b 86 347 213 -14 86 122 b 422 708 86 572 213 708 m 422 613 b 197 347 282 613 197 513 b 422 82 197 182 282 82 b 647 347 563 82 647 182 b 422 613 647 513 563 613 "},"ō":{"ha":844,"x_min":0,"x_max":0,"o":"m 664 828 l 181 828 l 181 921 l 664 921 m 422 708 b 758 347 632 708 758 572 b 422 -14 758 122 632 -14 b 86 347 213 -14 86 122 b 422 708 86 572 213 708 m 422 613 b 197 347 282 613 197 513 b 422 82 197 182 282 82 b 647 347 563 82 647 182 b 422 613 647 513 563 613 "},"ø":{"ha":846,"x_min":0,"x_max":0,"o":"m 422 708 b 618 656 500 708 565 690 l 672 726 l 765 726 l 674 607 b 758 347 729 544 758 457 b 422 -14 758 122 632 -14 b 240 31 351 -14 290 1 l 178 -51 l 85 -51 l 181 76 b 86 347 119 139 86 231 b 422 708 86 572 213 708 m 249 164 l 299 232 l 556 572 b 422 613 519 599 475 613 b 197 347 282 613 197 513 b 247 164 197 271 215 210 m 422 82 b 647 347 563 82 647 182 b 606 517 647 415 633 472 l 604 517 l 560 456 l 303 114 b 422 82 335 93 376 82 "},"õ":{"ha":844,"x_min":0,"x_max":0,"o":"m 672 996 b 517 810 663 874 613 810 b 325 904 413 810 385 904 b 257 808 283 904 267 868 l 169 808 b 326 994 179 931 228 994 b 515 900 428 994 460 900 b 585 996 557 900 575 936 l 672 996 m 422 708 b 758 347 632 708 758 572 b 422 -14 758 122 632 -14 b 86 347 213 -14 86 122 b 422 708 86 572 213 708 m 422 613 b 197 347 282 613 197 513 b 422 82 197 182 282 82 b 647 347 563 82 647 182 b 422 613 647 513 563 613 "},"œ":{"ha":1374,"x_min":0,"x_max":0,"o":"m 1290 383 b 1285 306 1290 351 1288 325 l 761 306 b 988 83 775 165 860 83 b 1183 186 1089 83 1158 119 l 1276 138 b 988 -14 1224 43 1138 -14 b 708 144 857 -14 761 43 b 426 -14 657 43 560 -14 b 86 347 213 -14 86 122 b 426 708 86 572 213 708 b 708 553 558 708 656 653 b 979 708 757 653 850 708 b 1290 383 1181 708 1290 563 m 426 83 b 651 347 567 83 651 182 b 426 611 651 513 567 611 b 201 347 286 611 201 513 b 426 83 201 182 286 83 m 979 611 b 763 404 856 611 779 535 l 1183 404 b 979 611 1168 532 1097 611 "},"p":{"ha":875,"x_min":0,"x_max":0,"o":"m 471 708 b 788 347 664 708 788 574 b 471 -14 788 121 664 -14 b 240 108 367 -14 283 36 l 240 -292 l 129 -292 l 129 694 l 226 694 l 233 574 b 471 708 274 653 361 708 m 458 83 b 676 347 594 83 676 186 b 458 611 676 508 594 611 b 240 356 326 611 240 513 l 240 339 b 458 83 240 182 326 83 "},"þ":{"ha":875,"x_min":0,"x_max":0,"o":"m 471 708 b 788 347 664 708 788 574 b 471 -14 788 121 664 -14 b 240 96 367 -14 286 31 l 240 -292 l 129 -292 l 129 1014 l 240 1014 l 240 599 b 471 708 286 664 367 708 m 458 83 b 676 347 594 83 676 186 b 458 611 676 508 594 611 b 240 356 326 611 240 513 l 240 339 b 458 83 240 182 326 83 "},"q":{"ha":876,"x_min":0,"x_max":0,"o":"m 747 694 l 747 -292 l 636 -292 l 636 108 b 406 -14 593 36 510 -14 b 89 347 213 -14 89 121 b 406 708 89 574 213 708 b 643 574 515 708 603 653 l 650 694 m 418 83 b 636 339 550 83 636 182 l 636 356 b 418 611 636 513 550 611 b 200 347 282 611 200 508 b 418 83 200 186 282 83 "},"r":{"ha":567,"x_min":0,"x_max":0,"o":"m 457 708 b 533 694 481 708 513 706 l 511 586 b 424 604 490 597 460 604 b 240 375 340 604 240 531 l 240 0 l 129 0 l 129 694 l 219 694 l 235 581 b 457 708 274 665 349 708 "},"ŕ":{"ha":567,"x_min":0,"x_max":0,"o":"m 328 810 l 238 810 l 343 1042 l 464 1042 m 457 708 b 533 694 481 708 513 706 l 511 586 b 424 604 490 597 460 604 b 240 375 340 604 240 531 l 240 0 l 129 0 l 129 694 l 219 694 l 235 581 b 457 708 274 665 349 708 "},"ř":{"ha":567,"x_min":0,"x_max":0,"o":"m 242 810 l 86 1042 l 188 1042 l 306 888 l 424 1042 l 525 1042 l 369 810 m 457 708 b 533 694 481 708 513 706 l 511 586 b 424 604 490 597 460 604 b 240 375 340 604 240 531 l 240 0 l 129 0 l 129 694 l 219 694 l 235 581 b 457 708 274 665 349 708 "},"s":{"ha":732,"x_min":0,"x_max":0,"o":"m 365 -14 b 67 143 238 -14 119 36 l 157 206 b 376 83 190 121 276 83 b 544 186 490 83 544 129 b 363 293 544 238 501 268 b 93 500 165 329 93 383 b 367 708 93 613 197 708 b 642 542 515 708 603 656 l 547 486 b 367 611 517 578 454 611 b 204 510 274 611 204 561 b 392 396 204 450 250 419 b 656 192 586 364 656 306 b 365 -14 656 71 543 -14 "},"ś":{"ha":732,"x_min":0,"x_max":0,"o":"m 525 1042 l 389 810 l 299 810 l 404 1042 m 365 -14 b 67 143 238 -14 119 36 l 157 206 b 376 83 190 121 276 83 b 544 186 490 83 544 129 b 363 293 544 238 501 268 b 93 500 165 329 93 383 b 367 708 93 613 197 708 b 642 542 515 708 603 656 l 547 486 b 367 611 517 578 454 611 b 204 510 274 611 204 561 b 392 396 204 450 250 419 b 656 192 586 364 656 306 b 365 -14 656 71 543 -14 "},"š":{"ha":732,"x_min":0,"x_max":0,"o":"m 431 810 l 303 810 l 147 1042 l 249 1042 l 367 888 l 485 1042 l 586 1042 m 365 -14 b 67 143 238 -14 119 36 l 157 206 b 376 83 190 121 276 83 b 544 186 490 83 544 129 b 363 293 544 238 501 268 b 93 500 165 329 93 383 b 367 708 93 613 197 708 b 642 542 515 708 603 656 l 547 486 b 367 611 517 578 454 611 b 204 510 274 611 204 561 b 392 396 204 450 250 419 b 656 192 586 364 656 306 b 365 -14 656 71 543 -14 "},"ß":{"ha":861,"x_min":0,"x_max":0,"o":"m 518 543 b 778 274 711 543 778 397 b 471 -14 778 126 676 -14 b 325 32 408 -14 350 8 l 357 122 b 476 88 385 100 424 88 b 671 286 603 88 671 171 b 429 482 671 415 585 482 l 375 482 l 375 586 l 429 586 b 628 756 554 586 628 658 b 442 917 628 865 563 917 b 240 657 286 917 240 828 l 240 0 l 129 0 l 129 690 b 453 1021 129 881 206 1021 b 742 763 667 1021 742 876 b 518 546 742 671 679 546 l 518 543 "},"ſ":{"ha":361,"x_min":0,"x_max":0,"o":"m 124 811 b 311 1021 124 935 174 1021 b 418 989 364 1021 399 1010 l 396 899 b 333 919 378 913 358 919 b 235 800 271 919 235 883 l 235 0 l 124 0 "},"t":{"ha":582,"x_min":0,"x_max":0,"o":"m 554 49 b 375 -14 511 10 451 -14 b 182 172 272 -14 183 38 l 182 599 l 43 599 l 43 694 l 182 694 l 182 861 l 293 892 l 293 694 l 550 694 l 550 599 l 293 599 l 293 192 b 397 90 293 124 336 90 b 515 142 447 90 483 110 "},"ť":{"ha":582,"x_min":0,"x_max":0,"o":"m 454 792 l 378 792 l 406 1065 l 511 1065 m 554 49 b 375 -14 511 10 451 -14 b 182 172 272 -14 183 38 l 182 599 l 43 599 l 43 694 l 182 694 l 182 861 l 293 892 l 293 694 l 550 694 l 550 599 l 293 599 l 293 192 b 397 90 293 124 336 90 b 515 142 447 90 483 110 "},"u":{"ha":860,"x_min":0,"x_max":0,"o":"m 731 694 l 731 0 l 633 0 l 626 106 b 378 -14 578 22 489 -14 b 122 240 240 -14 122 57 l 122 694 l 233 694 l 233 269 b 397 83 233 126 297 83 b 619 317 515 83 619 153 l 619 694 "},"ú":{"ha":860,"x_min":0,"x_max":0,"o":"m 450 810 l 360 810 l 465 1042 l 586 1042 m 731 694 l 731 0 l 633 0 l 626 106 b 378 -14 578 22 489 -14 b 122 240 240 -14 122 57 l 122 694 l 233 694 l 233 269 b 397 83 233 126 297 83 b 619 317 515 83 619 153 l 619 694 "},"û":{"ha":860,"x_min":0,"x_max":0,"o":"m 310 800 l 208 800 l 364 1032 l 492 1032 l 647 800 l 546 800 l 428 954 m 731 694 l 731 0 l 633 0 l 626 106 b 378 -14 578 22 489 -14 b 122 240 240 -14 122 57 l 122 694 l 233 694 l 233 269 b 397 83 233 126 297 83 b 619 317 515 83 619 153 l 619 694 "},"ü":{"ha":860,"x_min":0,"x_max":0,"o":"m 293 808 b 214 888 246 808 214 840 b 293 967 214 935 246 967 b 372 888 340 967 372 935 b 293 808 372 840 340 808 m 563 808 b 483 888 515 808 483 840 b 563 967 483 935 515 967 b 642 888 610 967 642 935 b 563 808 642 840 610 808 m 731 694 l 731 0 l 633 0 l 626 106 b 378 -14 578 22 489 -14 b 122 240 240 -14 122 57 l 122 694 l 233 694 l 233 269 b 397 83 233 126 297 83 b 619 317 515 83 619 153 l 619 694 "},"ù":{"ha":860,"x_min":0,"x_max":0,"o":"m 396 810 l 260 1042 l 381 1042 l 486 810 m 731 694 l 731 0 l 633 0 l 626 106 b 378 -14 578 22 489 -14 b 122 240 240 -14 122 57 l 122 694 l 233 694 l 233 269 b 397 83 233 126 297 83 b 619 317 515 83 619 153 l 619 694 "},"ű":{"ha":860,"x_min":0,"x_max":0,"o":"m 322 810 l 232 810 l 338 1042 l 458 1042 m 567 810 l 476 810 l 582 1042 l 703 1042 m 731 694 l 731 0 l 633 0 l 626 106 b 378 -14 578 22 489 -14 b 122 240 240 -14 122 57 l 122 694 l 233 694 l 233 269 b 397 83 233 126 297 83 b 619 317 515 83 619 153 l 619 694 "},"ū":{"ha":860,"x_min":0,"x_max":0,"o":"m 669 828 l 186 828 l 186 921 l 669 921 m 731 694 l 731 0 l 633 0 l 626 106 b 378 -14 578 22 489 -14 b 122 240 240 -14 122 57 l 122 694 l 233 694 l 233 269 b 397 83 233 126 297 83 b 619 317 515 83 619 153 l 619 694 "},"ģ":{"ha":739,"x_min":0,"x_max":0,"o":"m 438 815 l 315 815 l 413 1081 l 496 1081 m 517 89 b 726 -76 649 89 726 24 b 383 -299 726 -214 571 -299 b 64 -115 164 -299 64 -219 b 186 19 64 -51 110 -1 b 92 147 133 44 92 86 b 196 283 92 219 135 263 b 94 474 129 325 94 393 b 379 708 94 611 213 708 b 521 681 432 708 479 699 b 717 822 547 776 613 822 l 742 725 b 576 649 649 725 596 699 b 664 474 632 607 664 546 b 379 239 664 336 546 239 b 272 251 339 239 303 243 b 194 164 217 239 194 211 b 286 89 194 115 232 89 l 517 89 m 379 618 b 210 474 283 618 210 560 b 379 329 210 388 283 329 b 549 474 475 329 549 388 b 379 618 549 560 475 618 m 396 -206 b 624 -89 543 -206 624 -150 b 486 -7 624 -39 590 -7 l 300 -7 b 167 -93 213 -7 167 -40 b 396 -206 167 -161 243 -206 "},"ķ":{"ha":788,"x_min":0,"x_max":0,"o":"m 756 0 l 621 0 l 388 343 l 240 196 l 240 0 l 129 0 l 129 1014 l 240 1014 l 240 335 l 600 694 l 739 694 l 468 424 m 363 -106 l 479 -106 l 389 -329 l 301 -329 "},"ļ":{"ha":425,"x_min":0,"x_max":0,"o":"m 235 186 b 310 93 235 115 253 93 b 411 113 347 93 371 97 l 393 6 b 290 -14 364 -7 326 -14 b 124 172 178 -14 124 46 l 124 1014 l 235 1014 m 249 -329 l 161 -329 l 222 -106 l 339 -106 "},"ņ":{"ha":860,"x_min":0,"x_max":0,"o":"m 467 708 b 738 444 615 708 738 624 l 738 0 l 626 0 l 626 406 b 456 611 626 560 551 611 b 240 369 354 611 240 547 l 240 0 l 129 0 l 129 694 l 226 694 l 233 586 b 467 708 282 674 371 708 m 400 -106 l 517 -106 l 426 -329 l 339 -329 "},"ŗ":{"ha":567,"x_min":0,"x_max":0,"o":"m 457 708 b 533 694 481 708 513 706 l 511 586 b 424 604 490 597 460 604 b 240 375 340 604 240 531 l 240 0 l 129 0 l 129 694 l 219 694 l 235 581 b 457 708 274 665 349 708 m 139 -106 l 256 -106 l 165 -329 l 78 -329 "},"ş":{"ha":732,"x_min":0,"x_max":0,"o":"m 656 192 b 453 -7 656 92 579 17 b 532 -150 506 -46 532 -100 b 371 -299 532 -228 474 -299 b 218 -250 306 -299 257 -285 l 260 -174 b 356 -215 282 -197 317 -215 b 435 -135 400 -215 435 -183 b 333 -12 435 -83 413 -53 b 67 143 218 -6 115 46 l 157 206 b 376 83 190 121 276 83 b 544 186 490 83 544 129 b 363 293 544 238 501 268 b 93 500 165 329 93 383 b 367 708 93 613 197 708 b 642 542 515 708 603 656 l 547 486 b 367 611 517 578 454 611 b 204 510 274 611 204 561 b 392 396 204 450 250 419 b 656 192 586 364 656 306 "},"ţ":{"ha":610,"x_min":0,"x_max":0,"o":"m 433 -8 b 508 -150 485 -49 508 -101 b 347 -299 508 -228 450 -299 b 194 -250 282 -299 233 -285 l 236 -174 b 332 -215 258 -197 293 -215 b 411 -135 376 -215 411 -183 b 297 -3 411 -81 386 -50 b 182 172 231 19 183 74 l 182 599 l 43 599 l 43 694 l 182 694 l 182 861 l 293 892 l 293 694 l 550 694 l 550 599 l 293 599 l 293 192 b 397 90 293 124 336 90 b 515 142 447 90 483 110 l 554 49 b 433 -8 522 21 482 0 "},"ș":{"ha":732,"x_min":0,"x_max":0,"o":"m 365 -14 b 67 143 238 -14 119 36 l 157 206 b 376 83 190 121 276 83 b 544 186 490 83 544 129 b 363 293 544 238 501 268 b 93 500 165 329 93 383 b 367 708 93 613 197 708 b 642 542 515 708 603 656 l 547 486 b 367 611 517 578 454 611 b 204 510 274 611 204 561 b 392 396 204 450 250 419 b 656 192 586 364 656 306 b 365 -14 656 71 543 -14 m 339 -329 l 251 -329 l 313 -106 l 429 -106 "},"ț":{"ha":582,"x_min":0,"x_max":0,"o":"m 375 -14 b 182 172 272 -14 183 38 l 182 599 l 43 599 l 43 694 l 182 694 l 182 861 l 293 892 l 293 694 l 550 694 l 550 599 l 293 599 l 293 192 b 397 90 293 124 336 90 b 515 142 447 90 483 110 l 554 49 b 375 -14 511 10 451 -14 m 281 -106 l 397 -106 l 307 -329 l 219 -329 "},"ų":{"ha":860,"x_min":0,"x_max":0,"o":"m 746 -271 b 633 -299 719 -287 674 -299 b 486 -169 533 -299 486 -246 b 639 14 486 -89 535 -37 l 625 125 b 378 -14 569 36 474 -14 b 122 240 240 -14 122 57 l 122 694 l 233 694 l 233 269 b 390 83 233 126 297 83 b 619 328 508 83 619 174 l 619 694 l 731 694 l 731 0 b 572 -153 615 -61 572 -100 b 647 -219 572 -199 600 -219 b 724 -201 671 -219 701 -215 "},"ů":{"ha":860,"x_min":0,"x_max":0,"o":"m 424 799 b 249 964 319 799 249 865 b 424 1128 249 1061 319 1128 b 597 964 528 1128 597 1061 b 424 799 597 865 528 799 m 424 1060 b 325 964 367 1060 325 1019 b 424 868 325 908 367 868 b 522 964 481 868 522 908 b 424 1060 522 1019 481 1060 m 731 694 l 731 0 l 633 0 l 626 106 b 378 -14 578 22 489 -14 b 122 240 240 -14 122 57 l 122 694 l 233 694 l 233 269 b 397 83 233 126 297 83 b 619 317 515 83 619 153 l 619 694 "},"v":{"ha":722,"x_min":0,"x_max":0,"o":"m 706 694 l 417 0 l 306 0 l 17 694 l 143 694 l 363 113 l 589 694 "},"w":{"ha":1189,"x_min":0,"x_max":0,"o":"m 1138 694 l 896 0 l 785 0 l 589 553 l 404 0 l 293 0 l 51 694 l 175 694 l 350 129 l 539 694 l 650 694 l 839 129 l 1014 694 "},"x":{"ha":740,"x_min":0,"x_max":0,"o":"m 558 0 l 367 268 l 169 0 l 40 0 l 307 350 l 57 694 l 196 694 l 379 438 l 560 694 l 690 694 l 439 354 l 694 0 "},"y":{"ha":743,"x_min":0,"x_max":0,"o":"m 393 -117 b 174 -299 339 -253 276 -299 b 21 -240 104 -299 60 -282 l 60 -146 b 172 -201 92 -190 133 -201 b 299 -89 221 -201 264 -181 l 335 1 l 44 694 l 171 694 l 344 242 l 388 118 l 438 256 l 600 694 l 719 694 "},"ý":{"ha":743,"x_min":0,"x_max":0,"o":"m 538 1042 l 401 810 l 311 810 l 417 1042 m 393 -117 b 174 -299 339 -253 276 -299 b 21 -240 104 -299 60 -282 l 60 -146 b 172 -201 92 -190 133 -201 b 299 -89 221 -201 264 -181 l 335 1 l 44 694 l 171 694 l 344 242 l 388 118 l 438 256 l 600 694 l 719 694 "},"ÿ":{"ha":743,"x_min":0,"x_max":0,"o":"m 244 967 b 324 888 292 967 324 935 b 244 808 324 840 292 808 b 165 888 197 808 165 840 b 244 967 165 935 197 967 m 514 967 b 593 888 561 967 593 935 b 514 808 593 840 561 808 b 435 888 467 808 435 840 b 514 967 435 935 467 967 m 393 -117 b 174 -299 339 -253 276 -299 b 21 -240 104 -299 60 -282 l 60 -146 b 172 -201 92 -190 133 -201 b 299 -89 221 -201 264 -181 l 335 1 l 44 694 l 171 694 l 344 242 l 388 118 l 438 256 l 600 694 l 719 694 "},"z":{"ha":742,"x_min":0,"x_max":0,"o":"m 79 85 l 443 511 l 531 601 l 407 599 l 83 599 l 83 694 l 654 694 l 654 610 l 290 183 l 204 93 l 339 96 l 665 96 l 665 0 l 79 0 "},"ź":{"ha":742,"x_min":0,"x_max":0,"o":"m 508 1042 l 372 810 l 282 810 l 388 1042 m 79 85 l 443 511 l 531 601 l 407 599 l 83 599 l 83 694 l 654 694 l 654 610 l 290 183 l 204 93 l 339 96 l 665 96 l 665 0 l 79 0 "},"ž":{"ha":742,"x_min":0,"x_max":0,"o":"m 414 810 l 286 810 l 131 1042 l 232 1042 l 350 888 l 468 1042 l 569 1042 m 79 85 l 443 511 l 531 601 l 407 599 l 83 599 l 83 694 l 654 694 l 654 610 l 290 183 l 204 93 l 339 96 l 665 96 l 665 0 l 79 0 "},"ż":{"ha":742,"x_min":0,"x_max":0,"o":"m 350 994 b 433 911 400 994 433 961 b 350 828 433 861 400 828 b 267 911 300 828 267 861 b 350 994 267 961 300 994 m 79 85 l 443 511 l 531 601 l 407 599 l 83 599 l 83 694 l 654 694 l 654 610 l 290 183 l 204 93 l 339 96 l 665 96 l 665 0 l 79 0 "},"ﬁ":{"ha":915,"x_min":0,"x_max":0,"o":"m 421 919 b 294 800 340 919 294 883 l 294 694 l 526 694 l 526 599 l 294 599 l 294 0 l 183 0 l 183 599 l 44 599 l 44 694 l 183 694 l 183 811 b 411 1021 183 935 258 1021 b 529 989 460 1021 504 1010 l 500 899 b 421 919 478 913 453 919 m 731 994 b 814 911 781 994 814 961 b 731 828 814 861 781 828 b 647 911 681 828 647 861 b 731 994 647 961 681 994 m 675 694 l 786 694 l 786 0 l 675 0 "},"ﬂ":{"ha":971,"x_min":0,"x_max":0,"o":"m 421 919 b 294 800 340 919 294 883 l 294 694 l 526 694 l 526 599 l 294 599 l 294 0 l 183 0 l 183 599 l 44 599 l 44 694 l 183 694 l 183 811 b 411 1021 183 935 258 1021 b 529 989 460 1021 504 1010 l 500 899 b 421 919 478 913 453 919 m 856 93 b 957 113 893 93 917 97 l 939 6 b 836 -14 910 -7 872 -14 b 669 172 724 -14 669 46 l 669 1014 l 781 1014 l 781 186 b 856 93 781 115 799 93 "},"ª":{"ha":531,"x_min":0,"x_max":0,"o":"m 474 522 b 507 528 489 522 499 524 l 500 467 b 446 454 485 460 467 454 b 353 524 397 454 364 478 b 179 454 321 481 257 454 b 26 569 86 454 26 494 b 207 715 26 646 82 693 l 336 738 l 336 757 b 233 849 336 814 299 849 b 103 764 175 849 128 829 l 35 804 b 238 924 56 875 126 924 b 431 760 363 924 431 868 l 431 565 b 474 522 431 532 450 522 m 204 529 b 336 622 264 529 336 563 l 336 675 l 238 656 b 124 581 160 640 124 624 b 204 529 124 542 151 529 m 36 353 l 481 353 l 481 279 l 36 279 "},"º":{"ha":500,"x_min":0,"x_max":0,"o":"m 250 454 b 32 689 107 454 32 542 b 250 924 32 836 107 924 b 468 689 393 924 468 836 b 250 454 468 542 393 454 m 250 531 b 371 689 332 531 371 589 b 250 849 371 789 332 849 b 129 689 168 849 129 789 b 250 531 129 589 168 531 m 50 353 l 450 353 l 450 279 l 50 279 "},"π":{"ha":1022,"x_min":0,"x_max":0,"o":"m 754 601 l 754 189 b 906 93 754 115 800 93 l 883 0 b 643 174 708 0 643 42 l 643 601 l 343 601 l 343 0 l 232 0 l 232 601 l 43 601 l 43 694 l 965 694 l 965 601 "},"⁄":{"ha":344,"x_min":0,"x_max":0,"o":"m 449 917 l 558 917 l -104 0 l -214 0 "},"½":{"ha":1188,"x_min":0,"x_max":0,"o":"m 165 721 b 168 821 165 747 167 785 b 14 740 126 782 71 750 l 14 824 b 176 924 64 833 147 879 l 263 924 l 263 372 l 165 372 l 165 721 m 894 917 l 232 0 l 122 0 l 785 917 m 1147 74 l 1147 -6 l 735 -6 l 735 61 b 863 154 778 92 819 121 b 1033 371 996 260 1033 307 b 926 472 1033 429 996 472 b 807 343 854 472 810 424 l 719 374 b 931 553 726 486 808 553 b 1135 376 1067 553 1135 468 b 933 119 1135 296 1072 215 b 861 71 910 103 886 88 l 861 69 b 950 74 878 71 931 74 "},"¼":{"ha":1094,"x_min":0,"x_max":0,"o":"m 165 721 b 168 821 165 747 167 785 b 14 740 126 782 71 750 l 14 824 b 176 924 64 833 147 879 l 263 924 l 263 372 l 165 372 l 165 721 m 894 917 l 232 0 l 122 0 l 785 917 m 1067 201 l 1067 132 l 968 132 l 968 -6 l 886 -6 l 886 132 l 610 132 l 610 183 l 863 546 l 968 546 l 968 201 m 886 360 b 890 465 886 394 888 431 l 886 465 b 842 390 875 444 857 413 l 704 201 l 886 201 l 886 360 "},"¾":{"ha":1261,"x_min":0,"x_max":0,"o":"m 251 931 b 443 781 374 931 443 869 b 333 650 443 696 381 653 l 333 649 b 456 521 389 647 456 606 b 247 364 456 426 368 364 b 33 497 135 364 63 407 l 126 539 b 246 444 138 475 175 444 b 354 535 311 444 354 479 b 246 613 354 586 318 613 l 213 613 l 213 682 l 242 682 b 340 765 307 682 340 713 b 246 850 340 821 306 850 b 140 767 189 850 151 822 l 50 799 b 251 931 74 889 153 931 m 951 917 l 1061 917 l 399 0 l 289 0 m 1233 132 l 1135 132 l 1135 -6 l 1053 -6 l 1053 132 l 776 132 l 776 183 l 1029 546 l 1135 546 l 1135 201 l 1233 201 m 1053 201 l 1053 360 b 1057 465 1053 394 1054 431 l 1053 465 b 1008 390 1042 444 1024 413 l 871 201 "},"➀":{"ha":1264,"x_min":0,"x_max":0,"o":"m 632 972 b 1151 458 943 972 1151 765 b 632 -56 1151 151 943 -56 b 113 458 321 -56 113 151 b 632 972 113 765 321 972 m 632 28 b 1060 458 886 28 1060 201 b 632 889 1060 715 886 889 b 204 458 378 889 204 715 b 632 28 204 201 378 28 m 461 640 b 624 740 511 650 594 696 l 710 740 l 710 189 l 613 189 l 613 538 b 615 638 613 564 614 601 b 461 557 574 599 518 567 l 461 640 "},"➁":{"ha":1264,"x_min":0,"x_max":0,"o":"m 632 -56 b 113 458 321 -56 113 151 b 632 972 113 765 321 972 b 1151 458 943 972 1151 765 b 632 -56 1151 151 943 -56 m 632 28 b 1060 458 886 28 1060 201 b 632 889 1060 715 886 889 b 204 458 378 889 204 715 b 632 28 204 201 378 28 m 432 269 b 560 363 475 300 517 329 b 731 579 693 468 731 515 b 624 681 731 638 693 681 b 504 551 551 681 507 632 l 417 582 b 628 761 424 694 506 761 b 832 585 764 761 832 676 b 631 328 832 504 769 424 b 558 279 607 311 583 296 l 558 278 b 647 282 575 279 628 282 l 844 282 l 844 203 l 432 203 "},"➂":{"ha":1264,"x_min":0,"x_max":0,"o":"m 632 -56 b 113 458 321 -56 113 151 b 632 972 113 765 321 972 b 1151 458 943 972 1151 765 b 632 -56 1151 151 943 -56 m 632 28 b 1060 458 886 28 1060 201 b 632 889 1060 715 886 889 b 204 458 378 889 204 715 b 632 28 204 201 378 28 m 642 743 b 833 593 764 743 833 682 b 724 463 833 508 771 465 l 724 461 b 846 333 779 460 846 418 b 638 176 846 239 758 176 b 424 310 525 176 453 219 l 517 351 b 636 257 528 288 565 257 b 744 347 701 257 744 292 b 636 425 744 399 708 425 l 603 425 l 603 494 l 632 494 b 731 578 697 494 731 525 b 636 663 731 633 696 663 b 531 579 579 663 542 635 l 440 611 b 642 743 464 701 543 743 "},"➃":{"ha":1264,"x_min":0,"x_max":0,"o":"m 632 -56 b 113 458 321 -56 113 151 b 632 972 113 765 321 972 b 1151 458 943 972 1151 765 b 632 -56 1151 151 943 -56 m 632 28 b 1060 458 886 28 1060 201 b 632 889 1060 715 886 889 b 204 458 378 889 204 715 b 632 28 204 201 378 28 m 826 326 l 728 326 l 728 189 l 646 189 l 646 326 l 369 326 l 369 378 l 622 740 l 728 740 l 728 396 l 826 396 m 646 396 l 646 554 b 650 660 646 589 647 625 l 646 660 b 601 585 635 639 617 607 l 464 396 "},"➄":{"ha":1264,"x_min":0,"x_max":0,"o":"m 632 -56 b 113 458 321 -56 113 151 b 632 972 113 765 321 972 b 1151 458 943 972 1151 765 b 632 -56 1151 151 943 -56 m 632 28 b 1060 458 886 28 1060 201 b 632 889 1060 715 886 889 b 204 458 378 889 204 715 b 632 28 204 201 378 28 m 660 532 b 842 358 771 532 842 457 b 632 169 842 235 751 169 b 418 288 529 169 458 203 l 506 338 b 629 250 519 282 557 250 b 746 357 699 250 746 293 b 633 460 746 424 710 460 b 517 406 572 460 538 440 l 442 406 l 467 728 l 813 728 l 813 647 l 542 647 l 531 522 b 524 483 529 504 526 493 l 525 483 b 660 532 549 513 581 532 "},"➅":{"ha":1264,"x_min":0,"x_max":0,"o":"m 632 -56 b 113 458 321 -56 113 151 b 632 972 113 765 321 972 b 1151 458 943 972 1151 765 b 632 -56 1151 151 943 -56 m 632 28 b 1060 458 886 28 1060 201 b 632 889 1060 715 886 889 b 204 458 378 889 204 715 b 632 28 204 201 378 28 m 628 176 b 401 460 483 176 401 275 b 639 743 401 649 504 743 b 824 629 732 743 792 708 l 743 588 b 638 664 729 632 697 664 b 493 468 540 664 493 569 l 493 450 l 494 450 b 642 528 532 506 575 528 b 833 353 758 528 833 458 b 628 176 833 243 754 176 m 629 254 b 742 353 699 254 742 290 b 629 451 742 413 699 451 b 517 353 561 451 517 403 b 629 254 517 293 561 254 "},"➆":{"ha":1264,"x_min":0,"x_max":0,"o":"m 632 972 b 1151 458 943 972 1151 765 b 632 -56 1151 151 943 -56 b 113 458 321 -56 113 151 b 632 972 113 765 321 972 m 632 28 b 1060 458 886 28 1060 201 b 632 889 1060 715 886 889 b 204 458 378 889 204 715 b 632 28 204 201 378 28 m 433 718 l 854 718 l 854 638 b 668 167 718 496 668 353 l 571 167 b 761 638 571 336 626 499 l 433 638 "},"➇":{"ha":1264,"x_min":0,"x_max":0,"o":"m 632 -56 b 113 458 321 -56 113 151 b 632 972 113 765 321 972 b 1151 458 943 972 1151 765 b 632 -56 1151 151 943 -56 m 632 28 b 1060 458 886 28 1060 201 b 632 889 1060 715 886 889 b 204 458 378 889 204 715 b 632 28 204 201 378 28 m 632 742 b 831 593 754 742 831 685 b 733 469 831 535 796 490 l 733 468 b 851 333 807 447 851 401 b 632 176 851 236 767 176 b 413 333 499 176 413 236 b 531 468 413 400 457 447 l 531 469 b 433 593 469 489 433 533 b 632 742 433 685 510 742 m 632 668 b 529 588 568 668 529 638 b 632 506 529 538 569 506 b 735 588 694 506 735 538 b 632 668 735 638 696 668 m 632 251 b 753 340 706 251 753 286 b 632 431 753 396 706 431 b 511 340 560 431 511 396 b 632 251 511 286 558 251 "},"➈":{"ha":1264,"x_min":0,"x_max":0,"o":"m 632 -56 b 113 458 321 -56 113 151 b 632 972 113 765 321 972 b 1151 458 943 972 1151 765 b 632 -56 1151 151 943 -56 m 632 28 b 1060 458 886 28 1060 201 b 632 889 1060 715 886 889 b 204 458 378 889 204 715 b 632 28 204 201 378 28 m 635 743 b 861 458 776 743 861 640 b 632 176 861 274 774 176 b 428 296 529 176 458 215 l 519 335 b 633 254 532 285 563 254 b 769 435 736 254 769 349 b 768 463 769 444 769 454 l 767 463 b 626 389 753 426 688 389 b 426 563 500 389 426 456 b 635 743 426 674 506 743 m 636 664 b 522 564 564 664 522 626 b 635 465 522 503 564 465 b 750 564 703 465 750 508 b 636 664 750 624 703 664 "},"₀":{"ha":550,"x_min":0,"x_max":0,"o":"m 275 -271 b 47 13 125 -271 47 -174 b 275 296 47 199 125 296 b 503 13 425 296 503 199 b 275 -271 503 -174 425 -271 m 275 -192 b 406 13 364 -192 406 -122 b 275 217 406 147 364 217 b 144 13 186 217 144 147 b 275 -192 144 -122 186 -192 "},"₁":{"ha":336,"x_min":0,"x_max":0,"o":"m 263 289 l 263 -262 l 165 -262 l 165 86 b 168 186 165 113 167 150 b 14 106 126 147 71 115 l 14 189 b 176 289 64 199 147 244 "},"₂":{"ha":507,"x_min":0,"x_max":0,"o":"m 54 -196 b 182 -103 97 -165 139 -136 b 353 114 315 3 353 50 b 246 215 353 172 315 215 b 126 86 174 215 129 167 l 39 117 b 250 296 46 229 128 296 b 454 119 386 296 454 211 b 253 -137 454 39 392 -42 b 181 -186 229 -154 206 -169 l 181 -187 b 269 -183 197 -186 250 -183 l 467 -183 l 467 -262 l 54 -262 "},"₃":{"ha":503,"x_min":0,"x_max":0,"o":"m 251 296 b 443 146 374 296 443 235 b 333 15 443 61 381 18 l 333 14 b 456 -114 389 13 456 -29 b 247 -271 456 -208 368 -271 b 33 -137 135 -271 63 -228 l 126 -96 b 246 -190 138 -160 175 -190 b 354 -100 311 -190 354 -156 b 246 -22 354 -49 318 -22 l 213 -22 l 213 47 l 242 47 b 340 131 307 47 340 78 b 246 215 340 186 306 215 b 140 132 189 215 151 188 l 50 164 b 251 296 74 254 153 296 "},"₄":{"ha":497,"x_min":0,"x_max":0,"o":"m 469 -125 l 371 -125 l 371 -262 l 289 -262 l 289 -125 l 13 -125 l 13 -74 l 265 289 l 371 289 l 371 -56 l 469 -56 m 289 -56 l 289 103 b 293 208 289 138 290 174 l 289 208 b 244 133 278 188 260 156 l 107 -56 "},"₅":{"ha":500,"x_min":0,"x_max":0,"o":"m 278 93 b 460 -81 389 93 460 18 b 250 -269 460 -204 369 -269 b 36 -151 147 -269 76 -236 l 124 -101 b 247 -189 138 -157 175 -189 b 364 -82 317 -189 364 -146 b 251 21 364 -15 328 21 b 135 -33 190 21 156 1 l 60 -33 l 85 289 l 431 289 l 431 208 l 160 208 l 149 83 b 142 44 147 65 144 54 l 143 44 b 278 93 167 74 199 93 "},"₆":{"ha":522,"x_min":0,"x_max":0,"o":"m 274 -271 b 47 13 129 -271 47 -172 b 285 296 47 201 150 296 b 469 182 378 296 438 261 l 389 140 b 283 217 375 185 343 217 b 139 21 186 217 139 122 l 139 3 l 140 3 b 288 81 178 58 221 81 b 479 -94 404 81 479 11 b 274 -271 479 -204 400 -271 m 275 -193 b 388 -94 344 -193 388 -157 b 275 4 388 -35 344 4 b 163 -94 207 4 163 -44 b 275 -193 163 -154 207 -193 "},"₇":{"ha":433,"x_min":0,"x_max":0,"o":"m 425 289 l 425 208 b 239 -262 289 67 239 -76 l 142 -262 b 332 208 142 -93 197 69 l 4 208 l 4 289 "},"₈":{"ha":535,"x_min":0,"x_max":0,"o":"m 267 294 b 465 146 389 294 465 238 b 368 22 465 88 431 43 l 368 21 b 486 -114 442 0 486 -46 b 267 -271 486 -211 401 -271 b 47 -114 133 -271 47 -211 b 165 21 47 -47 92 0 l 165 22 b 68 146 104 42 68 86 b 267 294 68 238 144 294 m 267 221 b 164 140 203 221 164 190 b 267 58 164 90 204 58 b 369 140 329 58 369 90 b 267 221 369 190 331 221 m 267 -196 b 388 -107 340 -196 388 -161 b 267 -17 388 -51 340 -17 b 146 -107 194 -17 146 -51 b 267 -196 146 -161 193 -196 "},"₉":{"ha":529,"x_min":0,"x_max":0,"o":"m 256 296 b 482 11 397 296 482 193 b 253 -271 482 -174 394 -271 b 49 -151 150 -271 79 -232 l 140 -112 b 254 -193 153 -162 183 -193 b 390 -12 357 -193 390 -99 b 389 15 390 -3 390 7 l 388 15 b 247 -58 374 -21 308 -58 b 47 115 121 -58 47 8 b 256 296 47 226 126 296 m 257 217 b 143 117 185 217 143 179 b 256 18 143 56 185 18 b 371 117 324 18 371 61 b 257 217 371 176 324 217 "},"⁰":{"ha":550,"x_min":0,"x_max":0,"o":"m 275 454 b 47 738 125 454 47 551 b 275 1021 47 924 125 1021 b 503 738 425 1021 503 924 b 275 454 503 551 425 454 m 275 533 b 406 738 364 533 406 603 b 275 942 406 872 364 942 b 144 738 186 942 144 872 b 275 533 144 603 186 533 "},"¹":{"ha":336,"x_min":0,"x_max":0,"o":"m 263 1014 l 263 463 l 165 463 l 165 811 b 168 911 165 838 167 875 b 14 831 126 872 71 840 l 14 914 b 176 1014 64 924 147 969 "},"²":{"ha":507,"x_min":0,"x_max":0,"o":"m 54 529 b 182 622 97 560 139 589 b 353 839 315 728 353 775 b 246 940 353 897 315 940 b 126 811 174 940 129 892 l 39 842 b 250 1021 46 954 128 1021 b 454 844 386 1021 454 936 b 253 588 454 764 392 683 b 181 539 229 571 206 556 l 181 538 b 269 542 197 539 250 542 l 467 542 l 467 463 l 54 463 "},"³":{"ha":503,"x_min":0,"x_max":0,"o":"m 251 1021 b 443 871 374 1021 443 960 b 333 740 443 786 381 743 l 333 739 b 456 611 389 738 456 696 b 247 454 456 517 368 454 b 33 588 135 454 63 497 l 126 629 b 246 535 138 565 175 535 b 354 625 311 535 354 569 b 246 703 354 676 318 703 l 213 703 l 213 772 l 242 772 b 340 856 307 772 340 803 b 246 940 340 911 306 940 b 140 857 189 940 151 913 l 50 889 b 251 1021 74 979 153 1021 "},"⁴":{"ha":497,"x_min":0,"x_max":0,"o":"m 469 600 l 371 600 l 371 463 l 289 463 l 289 600 l 13 600 l 13 651 l 265 1014 l 371 1014 l 371 669 l 469 669 m 289 669 l 289 828 b 293 933 289 863 290 899 l 289 933 b 244 858 278 913 260 881 l 107 669 "},"⁵":{"ha":500,"x_min":0,"x_max":0,"o":"m 278 818 b 460 644 389 818 460 743 b 250 456 460 521 369 456 b 36 574 147 456 76 489 l 124 624 b 247 536 138 568 175 536 b 364 643 317 536 364 579 b 251 746 364 710 328 746 b 135 692 190 746 156 726 l 60 692 l 85 1014 l 431 1014 l 431 933 l 160 933 l 149 808 b 142 769 147 790 144 779 l 143 769 b 278 818 167 799 199 818 "},"⁶":{"ha":522,"x_min":0,"x_max":0,"o":"m 274 454 b 47 738 129 454 47 553 b 285 1021 47 926 150 1021 b 469 907 378 1021 438 986 l 389 865 b 283 942 375 910 343 942 b 139 746 186 942 139 847 l 139 728 l 140 728 b 288 806 178 783 221 806 b 479 631 404 806 479 736 b 274 454 479 521 400 454 m 275 532 b 388 631 344 532 388 568 b 275 729 388 690 344 729 b 163 631 207 729 163 681 b 275 532 163 571 207 532 "},"⁷":{"ha":433,"x_min":0,"x_max":0,"o":"m 425 1014 l 425 933 b 239 463 289 792 239 649 l 142 463 b 332 933 142 632 197 794 l 4 933 l 4 1014 "},"⁸":{"ha":535,"x_min":0,"x_max":0,"o":"m 267 1019 b 465 871 389 1019 465 963 b 368 747 465 813 431 768 l 368 746 b 486 611 442 725 486 679 b 267 454 486 514 401 454 b 47 611 133 454 47 514 b 165 746 47 678 92 725 l 165 747 b 68 871 104 767 68 811 b 267 1019 68 963 144 1019 m 267 946 b 164 865 203 946 164 915 b 267 783 164 815 204 783 b 369 865 329 783 369 815 b 267 946 369 915 331 946 m 267 529 b 388 618 340 529 388 564 b 267 708 388 674 340 708 b 146 618 194 708 146 674 b 267 529 146 564 193 529 "},"⁹":{"ha":529,"x_min":0,"x_max":0,"o":"m 256 1021 b 482 736 397 1021 482 918 b 253 454 482 551 394 454 b 49 574 150 454 79 493 l 140 613 b 254 532 153 563 183 532 b 390 713 357 532 390 626 b 389 740 390 722 390 732 l 388 740 b 247 667 374 704 308 667 b 47 840 121 667 47 733 b 256 1021 47 951 126 1021 m 257 942 b 143 842 185 942 143 904 b 256 743 143 781 185 743 b 371 842 324 743 371 786 b 257 942 371 901 324 942 "},"*":{"ha":794,"x_min":0,"x_max":0,"o":"m 528 586 l 625 450 l 553 397 l 453 532 l 397 633 l 342 532 l 242 397 l 169 450 l 267 586 l 346 671 l 232 693 l 74 746 l 100 831 l 261 781 l 365 732 l 351 846 l 351 1014 l 443 1014 l 443 846 l 429 732 l 533 781 l 694 831 l 721 746 l 563 693 l 449 671 "},"\\":{"ha":608,"x_min":0,"x_max":0,"o":"m 144 1014 l 569 -97 l 465 -97 l 40 1014 "},"·":{"ha":314,"x_min":0,"x_max":0,"o":"m 157 583 b 247 493 211 583 247 547 b 157 403 247 439 211 403 b 67 493 103 403 67 439 b 157 583 67 547 103 583 "},"•":{"ha":597,"x_min":0,"x_max":0,"o":"m 299 636 b 472 468 400 636 472 565 b 299 300 472 371 400 300 b 125 468 199 300 125 371 b 299 636 125 565 199 636 "},":":{"ha":411,"x_min":0,"x_max":0,"o":"m 206 708 b 296 618 260 708 296 672 b 206 528 296 564 260 528 b 115 618 151 528 115 564 b 206 708 115 672 151 708 m 206 167 b 296 76 260 167 296 131 b 206 -14 296 22 260 -14 b 115 76 151 -14 115 22 b 206 167 115 131 151 167 "},",":{"ha":369,"x_min":0,"x_max":0,"o":"m 185 167 b 289 32 250 167 289 111 b 138 -203 289 -61 243 -153 l 79 -149 b 215 -7 154 -124 203 -65 l 210 -4 b 171 -14 203 -10 193 -14 b 94 74 138 -14 94 14 b 185 167 94 124 135 167 "},"…":{"ha":1194,"x_min":0,"x_max":0,"o":"m 194 167 b 285 76 249 167 285 131 b 194 -14 285 22 249 -14 b 104 76 140 -14 104 22 b 194 167 104 131 140 167 m 597 167 b 688 76 651 167 688 131 b 597 -14 688 22 651 -14 b 507 76 543 -14 507 22 b 597 167 507 131 543 167 m 1000 167 b 1090 76 1054 167 1090 131 b 1000 -14 1090 22 1054 -14 b 910 76 946 -14 910 22 b 1000 167 910 131 946 167 "},"!":{"ha":378,"x_min":0,"x_max":0,"o":"m 247 519 l 231 289 l 147 289 l 131 519 l 131 917 l 247 917 m 189 167 b 279 76 243 167 279 131 b 189 -14 279 22 243 -14 b 99 76 135 -14 99 22 b 189 167 99 131 135 167 "},"¡":{"ha":367,"x_min":0,"x_max":0,"o":"m 183 528 b 93 618 129 528 93 564 b 183 708 93 672 129 708 b 274 618 238 708 274 672 b 183 528 274 564 238 528 m 125 175 l 142 406 l 225 406 l 242 175 l 242 -222 l 125 -222 "},"#":{"ha":889,"x_min":0,"x_max":0,"o":"m 674 579 l 633 344 l 799 344 l 799 260 l 619 260 l 576 0 l 482 0 l 525 260 l 294 260 l 251 0 l 157 0 l 200 260 l 28 260 l 28 344 l 214 344 l 254 579 l 89 579 l 89 664 l 268 664 l 310 917 l 404 917 l 363 664 l 593 664 l 635 917 l 729 917 l 688 664 l 860 664 l 860 579 m 579 579 l 349 579 l 308 344 l 539 344 "},".":{"ha":369,"x_min":0,"x_max":0,"o":"m 185 167 b 275 76 239 167 275 131 b 185 -14 275 22 239 -14 b 94 76 131 -14 94 22 b 185 167 94 131 131 167 "},"?":{"ha":753,"x_min":0,"x_max":0,"o":"m 379 931 b 683 694 557 931 683 840 b 422 438 683 532 567 453 l 422 289 l 307 289 l 307 497 b 567 681 492 525 567 575 b 371 826 567 768 503 826 b 153 638 249 826 167 754 l 54 694 b 379 931 85 836 204 931 m 363 167 b 453 76 417 167 453 131 b 363 -14 453 22 417 -14 b 272 76 308 -14 272 22 b 363 167 272 131 308 167 "},"¿":{"ha":746,"x_min":0,"x_max":0,"o":"m 386 528 b 296 618 332 528 296 564 b 386 708 296 672 332 708 b 476 618 440 708 476 672 b 386 528 476 564 440 528 m 369 -236 b 65 0 192 -236 65 -146 b 326 257 65 163 182 242 l 326 406 l 442 406 l 442 197 b 182 14 257 169 182 119 b 378 -132 182 -74 246 -132 b 596 57 500 -132 582 -60 l 694 0 b 369 -236 664 -142 544 -236 "},"\"":{"ha":560,"x_min":0,"x_max":0,"o":"m 200 615 l 114 615 l 114 958 l 236 958 m 435 615 l 349 615 l 349 958 l 471 958 "},"'":{"ha":325,"x_min":0,"x_max":0,"o":"m 200 615 l 114 615 l 114 958 l 236 958 "},";":{"ha":411,"x_min":0,"x_max":0,"o":"m 214 528 b 124 618 160 528 124 564 b 214 708 124 672 160 708 b 304 618 268 708 304 672 b 214 528 304 564 268 528 m 208 167 b 313 32 274 167 313 111 b 161 -203 313 -61 267 -153 l 103 -149 b 239 -7 178 -124 226 -65 l 233 -4 b 194 -14 226 -10 217 -14 b 118 74 161 -14 118 14 b 208 167 118 124 158 167 "},"/":{"ha":608,"x_min":0,"x_max":0,"o":"m 143 -97 l 39 -97 l 464 1014 l 568 1014 "},"_":{"ha":749,"x_min":0,"x_max":0,"o":"m 749 -239 l 0 -239 l 0 -135 l 749 -135 "},"₍":{"ha":314,"x_min":0,"x_max":0,"o":"m 324 367 b 185 13 224 267 185 164 b 324 -342 185 -139 224 -242 l 268 -390 b 93 13 154 -290 93 -151 b 268 415 93 176 154 315 "},"₎":{"ha":314,"x_min":0,"x_max":0,"o":"m 46 415 b 221 13 160 315 221 176 b 46 -390 221 -151 160 -290 l -10 -342 b 129 13 90 -242 129 -139 b -10 367 129 164 90 267 l 46 415 "},"{":{"ha":488,"x_min":0,"x_max":0,"o":"m 299 -99 b 431 -172 299 -149 336 -172 l 413 -262 b 194 -90 253 -262 194 -200 l 194 197 b 39 342 194 301 151 342 l 39 439 b 194 583 151 439 194 479 l 194 871 b 413 1043 194 981 253 1043 l 431 953 b 299 879 336 953 299 929 l 299 574 b 140 390 299 474 243 413 b 299 207 243 368 299 307 l 299 -99 "},"}":{"ha":488,"x_min":0,"x_max":0,"o":"m 293 583 b 449 439 293 479 336 439 l 449 342 b 293 197 336 342 293 301 l 293 -90 b 75 -262 293 -200 235 -262 l 57 -172 b 189 -99 151 -172 189 -149 l 189 207 b 347 390 189 307 244 368 b 189 574 244 413 189 474 l 189 879 b 57 953 189 929 151 953 l 75 1043 b 293 871 235 1043 293 981 l 293 583 "},"[":{"ha":483,"x_min":0,"x_max":0,"o":"m 225 917 l 225 -136 l 438 -136 l 438 -233 l 121 -233 l 121 1014 l 438 1014 l 438 917 "},"]":{"ha":483,"x_min":0,"x_max":0,"o":"m 363 -233 l 46 -233 l 46 -136 l 258 -136 l 258 917 l 46 917 l 46 1014 l 363 1014 "},"(":{"ha":486,"x_min":0,"x_max":0,"o":"m 446 979 b 199 390 263 811 199 644 b 446 -199 199 136 263 -31 l 382 -262 b 85 390 186 -93 85 129 b 382 1043 85 651 186 874 "},")":{"ha":486,"x_min":0,"x_max":0,"o":"m 104 1043 b 401 390 300 874 401 651 b 104 -262 401 129 300 -93 l 40 -199 b 288 390 224 -31 288 136 b 40 979 288 644 224 811 l 104 1043 "},"⁽":{"ha":314,"x_min":0,"x_max":0,"o":"m 324 1092 b 185 738 224 992 185 889 b 324 383 185 586 224 483 l 268 335 b 93 738 154 435 93 574 b 268 1140 93 901 154 1040 "},"⁾":{"ha":314,"x_min":0,"x_max":0,"o":"m 46 1140 b 221 738 160 1040 221 901 b 46 335 221 574 160 435 l -10 383 b 129 738 90 483 129 586 b -10 1092 129 889 90 992 l 46 1140 "},"—":{"ha":1408,"x_min":0,"x_max":0,"o":"m 1294 311 l 114 311 l 114 415 l 1294 415 "},"–":{"ha":922,"x_min":0,"x_max":0,"o":"m 808 311 l 114 311 l 114 415 l 808 415 "},"-":{"ha":708,"x_min":0,"x_max":0,"o":"m 583 306 l 125 306 l 125 421 l 583 421 "},"­":{"ha":708,"x_min":0,"x_max":0,"o":"m 583 306 l 125 306 l 125 421 l 583 421 "},"«":{"ha":685,"x_min":0,"x_max":0,"o":"m 189 368 l 367 96 l 246 96 l 71 368 l 246 640 l 367 640 m 435 368 l 613 96 l 492 96 l 317 368 l 492 640 l 613 640 "},"»":{"ha":683,"x_min":0,"x_max":0,"o":"m 192 640 l 367 368 l 192 96 l 71 96 l 249 368 l 71 640 m 438 640 l 613 368 l 438 96 l 317 96 l 494 368 l 317 640 "},"‹":{"ha":439,"x_min":0,"x_max":0,"o":"m 189 368 l 367 96 l 246 96 l 71 368 l 246 640 l 367 640 "},"›":{"ha":439,"x_min":0,"x_max":0,"o":"m 193 640 l 368 368 l 193 96 l 72 96 l 250 368 l 72 640 "},"„":{"ha":629,"x_min":0,"x_max":0,"o":"m 182 167 b 286 32 247 167 286 111 b 135 -203 286 -61 240 -153 l 76 -149 b 213 -7 151 -124 200 -65 l 207 -4 b 168 -14 200 -10 190 -14 b 92 74 135 -14 92 14 b 182 167 92 124 132 167 m 443 167 b 547 32 508 167 547 111 b 396 -203 547 -61 501 -153 l 338 -149 b 474 -7 413 -124 461 -65 l 468 -4 b 429 -14 461 -10 451 -14 b 353 74 396 -14 353 14 b 443 167 353 124 393 167 "},"“":{"ha":615,"x_min":0,"x_max":0,"o":"m 178 603 b 74 738 113 603 74 658 b 225 972 74 831 119 922 l 283 918 b 147 776 208 893 160 835 l 153 774 b 192 783 160 779 169 783 b 268 696 225 783 268 756 b 178 603 268 646 228 603 m 439 603 b 335 738 374 603 335 658 b 486 972 335 831 381 922 l 544 918 b 408 776 469 893 421 835 l 414 774 b 453 783 421 779 431 783 b 529 696 486 783 529 756 b 439 603 529 646 489 603 "},"”":{"ha":615,"x_min":0,"x_max":0,"o":"m 182 972 b 286 838 247 972 286 917 b 135 603 286 744 240 653 l 76 657 b 213 799 151 682 200 740 l 207 801 b 168 792 200 796 190 792 b 92 879 135 792 92 819 b 182 972 92 929 132 972 m 443 972 b 547 838 508 972 547 917 b 396 603 547 744 501 653 l 338 657 b 474 799 413 682 461 740 l 468 801 b 429 792 461 796 451 792 b 353 879 396 792 353 819 b 443 972 353 929 393 972 "},"‘":{"ha":354,"x_min":0,"x_max":0,"o":"m 178 603 b 74 738 113 603 74 658 b 225 972 74 831 119 922 l 283 918 b 147 776 208 893 160 835 l 153 774 b 192 783 160 779 169 783 b 268 696 225 783 268 756 b 178 603 268 646 228 603 "},"’":{"ha":354,"x_min":0,"x_max":0,"o":"m 182 972 b 286 838 247 972 286 917 b 135 603 286 744 240 653 l 76 657 b 213 799 151 682 200 740 l 207 801 b 168 792 200 796 190 792 b 92 879 135 792 92 819 b 182 972 92 929 132 972 "},"‚":{"ha":368,"x_min":0,"x_max":0,"o":"m 182 167 b 286 32 247 167 286 111 b 135 -203 286 -61 240 -153 l 76 -149 b 213 -7 151 -124 200 -65 l 207 -4 b 168 -14 200 -10 190 -14 b 92 74 135 -14 92 14 b 182 167 92 124 132 167 "}," ":{"ha":474,"x_min":0,"x_max":0,"o":""},"€":{"ha":972,"x_min":0,"x_max":0,"o":"m 917 235 b 575 -14 865 78 728 -14 b 208 297 379 -14 251 103 l 86 297 l 86 388 l 194 388 b 192 458 193 410 192 433 b 193 507 192 475 192 492 l 86 507 l 86 597 l 204 597 b 572 931 243 806 374 931 b 900 717 729 931 850 856 l 800 669 b 582 833 768 775 683 833 b 318 597 451 833 354 746 l 649 597 l 621 507 l 304 507 b 303 458 303 492 303 475 b 307 388 303 433 304 410 l 593 388 l 565 297 l 324 297 b 576 83 361 163 451 83 b 815 272 679 83 782 149 "},"¢":{"ha":788,"x_min":0,"x_max":0,"o":"m 722 192 b 468 -12 682 75 594 0 l 468 -139 l 375 -139 l 375 -11 b 94 347 199 13 94 143 b 375 706 94 551 199 682 l 375 833 l 468 833 l 468 707 b 715 524 590 696 671 628 l 610 474 b 468 614 585 553 536 601 l 468 79 b 622 226 547 92 599 142 l 722 192 m 199 347 b 375 81 199 197 263 103 l 375 614 b 199 347 263 592 199 497 "},"¤":{"ha":924,"x_min":0,"x_max":0,"o":"m 754 457 b 703 283 754 390 735 331 l 826 163 l 756 92 l 631 213 b 463 164 585 182 526 164 b 289 217 396 164 338 183 l 168 92 l 97 163 l 219 288 b 169 457 188 333 169 392 b 221 629 169 524 189 582 l 97 750 l 168 821 l 292 699 b 463 749 339 731 397 749 b 635 697 529 749 588 731 l 756 821 l 826 750 l 706 626 b 754 457 736 579 754 521 m 463 264 b 643 457 567 264 643 344 b 463 649 643 568 567 649 b 281 457 357 649 281 568 b 463 264 281 344 357 264 "},"$":{"ha":854,"x_min":0,"x_max":0,"o":"m 388 1 b 65 238 226 15 114 97 l 168 290 b 388 96 189 188 282 115 l 388 418 b 101 651 244 449 101 488 b 388 915 101 789 208 900 l 388 1056 l 483 1056 l 483 914 b 769 722 624 903 706 840 l 679 651 b 483 819 633 757 581 807 l 483 493 b 771 254 626 463 771 422 b 483 1 771 110 657 15 l 483 -139 l 388 -139 m 388 821 b 207 660 268 810 207 751 b 388 513 207 569 288 536 m 483 93 b 667 246 596 103 667 149 b 483 397 667 339 585 374 l 483 93 "},"ƒ":{"ha":678,"x_min":0,"x_max":0,"o":"m 543 919 b 436 800 483 919 449 882 l 397 556 l 603 556 l 603 460 l 382 460 l 314 32 b 106 -178 292 -107 222 -178 b -22 -144 50 -178 22 -171 l -6 -44 b 96 -76 25 -67 56 -76 b 203 43 156 -76 190 -39 l 269 460 l 75 460 l 75 556 l 285 556 l 325 811 b 533 1021 347 950 417 1021 b 661 988 589 1021 617 1014 l 644 888 b 543 919 614 910 583 919 "},"£":{"ha":869,"x_min":0,"x_max":0,"o":"m 818 213 b 629 -14 818 64 749 -14 b 417 67 544 -14 478 26 b 222 -14 372 18 308 -14 b 69 106 128 -14 69 36 b 233 229 69 171 129 229 b 396 183 303 229 353 208 b 403 240 400 201 403 221 b 349 386 403 288 388 329 l 119 386 l 119 476 l 279 476 b 206 649 225 549 206 596 b 499 931 206 813 328 931 b 775 714 644 931 735 860 l 679 661 b 493 829 653 767 603 829 b 308 667 379 829 308 764 b 389 486 308 615 326 575 b 396 476 392 483 393 479 l 657 476 l 657 386 l 451 386 b 486 246 476 336 486 293 b 463 136 486 210 478 172 b 614 75 508 104 553 75 b 728 213 693 75 726 115 m 236 61 b 354 107 288 61 326 79 b 235 146 315 129 276 146 b 171 106 190 146 171 131 b 236 61 171 76 199 61 "},"₺":{"ha":903,"x_min":0,"x_max":0,"o":"m 836 372 b 483 0 826 118 707 0 l 267 0 l 267 364 l 88 313 l 88 393 l 267 444 l 267 572 l 88 521 l 88 601 l 267 653 l 267 917 l 371 917 l 371 683 l 664 768 l 664 688 l 371 603 l 371 475 l 664 560 l 664 479 l 371 394 l 371 94 l 472 94 b 729 372 644 94 729 182 "},"₽":{"ha":896,"x_min":0,"x_max":0,"o":"m 310 363 l 310 265 l 557 265 l 557 178 l 310 178 l 310 0 l 206 0 l 206 178 l 74 178 l 74 265 l 206 265 l 206 363 l 74 363 l 74 460 l 206 460 l 206 917 l 529 917 b 838 638 714 917 838 810 b 529 363 838 469 714 363 m 310 460 l 513 460 b 721 638 657 460 721 521 b 513 815 721 754 657 815 l 310 815 "},"¥":{"ha":861,"x_min":0,"x_max":0,"o":"m 567 413 l 747 413 l 747 329 l 479 329 l 479 225 l 747 225 l 747 149 l 479 149 l 479 0 l 382 0 l 382 149 l 115 149 l 115 225 l 382 225 l 382 329 l 115 329 l 115 413 l 294 413 l 356 407 l 47 917 l 176 917 l 363 579 l 429 442 l 432 442 l 499 581 l 685 917 l 814 917 l 506 407 "},"≈":{"ha":839,"x_min":0,"x_max":0,"o":"m 265 688 b 579 590 383 688 478 590 b 757 667 640 590 693 606 l 757 565 b 578 489 701 513 646 489 b 265 586 467 489 371 586 b 82 510 183 586 138 563 l 82 611 b 265 688 142 665 186 688 m 265 410 b 579 313 383 410 478 313 b 757 389 640 313 693 328 l 757 288 b 578 211 701 235 646 211 b 265 308 467 211 371 308 b 82 232 183 308 138 285 l 82 333 b 265 410 142 388 186 410 "},"~":{"ha":750,"x_min":0,"x_max":0,"o":"m 690 533 b 510 326 679 397 618 326 b 251 429 383 326 339 429 b 165 326 203 429 176 389 l 60 326 b 242 533 71 463 129 533 b 499 431 365 533 414 431 b 585 533 547 431 574 471 l 690 533 "},"÷":{"ha":839,"x_min":0,"x_max":0,"o":"m 419 800 b 510 710 474 800 510 764 b 419 619 510 656 474 619 b 329 710 365 619 329 656 b 419 800 329 764 365 800 m 757 388 l 82 388 l 82 492 l 757 492 m 419 257 b 510 167 474 257 510 221 b 419 76 510 113 474 76 b 329 167 365 76 329 113 b 419 257 329 221 365 257 "},"=":{"ha":839,"x_min":0,"x_max":0,"o":"m 750 508 l 89 508 l 89 613 l 750 613 m 750 231 l 89 231 l 89 335 l 750 335 "},"₌":{"ha":531,"x_min":0,"x_max":0,"o":"m 74 135 l 457 135 l 457 61 l 74 61 m 74 -40 l 457 -40 l 457 -114 l 74 -114 "},"⁼":{"ha":531,"x_min":0,"x_max":0,"o":"m 74 860 l 457 860 l 457 786 l 74 786 m 74 685 l 457 685 l 457 611 l 74 611 "},">":{"ha":839,"x_min":0,"x_max":0,"o":"m 740 481 l 740 351 l 79 39 l 79 154 l 651 417 l 79 678 l 79 793 "},"≥":{"ha":839,"x_min":0,"x_max":0,"o":"m 743 596 l 743 458 l 75 175 l 75 293 l 656 528 l 75 761 l 75 879 m 75 104 l 743 104 l 743 0 l 75 0 "},"∞":{"ha":1231,"x_min":0,"x_max":0,"o":"m 903 694 b 1132 417 1028 694 1132 592 b 903 139 1132 242 1028 139 b 608 339 800 139 728 204 b 328 139 458 160 418 139 b 99 417 203 139 99 242 b 328 694 99 592 203 694 b 621 497 431 694 506 635 b 903 694 781 682 822 694 m 906 250 b 1024 431 967 249 1024 315 b 906 611 1024 546 967 611 b 681 425 843 611 819 590 b 906 250 782 304 847 251 m 325 222 b 547 408 390 222 413 247 b 325 583 435 536 388 583 b 207 403 264 583 207 518 b 325 222 207 288 264 222 "},"∫":{"ha":638,"x_min":0,"x_max":0,"o":"m 472 1053 b 600 1019 544 1053 569 1038 l 583 919 b 482 951 558 938 529 951 b 375 832 425 951 375 917 l 375 32 b 167 -178 375 -92 296 -178 b 39 -144 94 -178 69 -162 l 56 -44 b 157 -76 81 -62 110 -76 b 264 43 214 -76 264 -42 l 264 843 b 472 1053 264 967 343 1053 "},"<":{"ha":839,"x_min":0,"x_max":0,"o":"m 760 678 l 188 417 l 760 154 l 760 39 l 99 351 l 99 481 l 760 793 "},"≤":{"ha":839,"x_min":0,"x_max":0,"o":"m 764 761 l 183 528 l 764 293 l 764 175 l 96 458 l 96 596 l 764 879 m 96 104 l 764 104 l 764 0 l 96 0 "},"¬":{"ha":839,"x_min":0,"x_max":0,"o":"m 757 492 l 757 182 l 646 182 l 646 388 l 82 388 l 82 492 "},"−":{"ha":839,"x_min":0,"x_max":0,"o":"m 757 388 l 82 388 l 82 492 l 757 492 "},"₋":{"ha":475,"x_min":0,"x_max":0,"o":"m 38 44 l 438 44 l 438 -24 l 38 -24 "},"⁻":{"ha":475,"x_min":0,"x_max":0,"o":"m 38 769 l 438 769 l 438 701 l 38 701 "},"×":{"ha":839,"x_min":0,"x_max":0,"o":"m 493 442 l 725 208 l 651 135 l 419 368 l 186 135 l 113 208 l 346 442 l 113 674 l 186 747 l 419 515 l 651 747 l 725 674 "},"≠":{"ha":839,"x_min":0,"x_max":0,"o":"m 522 515 l 428 328 l 750 328 l 750 231 l 379 231 l 308 89 l 199 89 l 269 231 l 89 231 l 89 328 l 318 328 l 413 515 l 89 515 l 89 613 l 461 613 l 532 754 l 642 754 l 571 613 l 750 613 l 750 515 "},"∂":{"ha":861,"x_min":0,"x_max":0,"o":"m 392 931 b 761 458 656 931 761 751 b 406 -14 761 151 636 -14 b 90 297 213 -14 90 115 b 400 608 90 479 221 608 b 658 479 508 608 601 561 b 389 836 653 733 561 836 b 197 751 304 836 256 810 l 140 833 b 392 931 210 894 292 931 m 406 86 b 650 335 542 86 624 172 b 399 510 615 440 535 510 b 201 299 272 510 201 428 b 406 86 201 167 272 86 "},"%":{"ha":1189,"x_min":0,"x_max":0,"o":"m 276 931 b 497 678 411 931 497 831 b 276 425 497 525 411 425 b 56 678 142 425 56 525 b 276 931 56 831 142 931 m 833 917 l 939 917 l 356 0 l 250 0 m 276 843 b 154 678 197 843 154 782 b 276 513 154 574 197 513 b 399 678 356 513 399 574 b 276 843 399 782 356 843 m 913 492 b 1133 239 1047 492 1133 392 b 913 -14 1133 86 1047 -14 b 692 239 778 -14 692 86 b 913 492 692 392 778 492 m 913 404 b 790 239 833 404 790 343 b 913 74 790 135 833 74 b 1035 239 992 74 1035 135 b 913 404 1035 343 992 404 "},"‰":{"ha":1728,"x_min":0,"x_max":0,"o":"m 276 931 b 497 678 411 931 497 831 b 276 425 497 525 411 425 b 56 678 142 425 56 525 b 276 931 56 831 142 931 m 833 917 l 939 917 l 356 0 l 250 0 m 276 843 b 154 678 197 843 154 782 b 276 513 154 574 197 513 b 399 678 356 513 399 574 b 276 843 399 782 356 843 m 913 492 b 1133 239 1047 492 1133 392 b 913 -14 1133 86 1047 -14 b 692 239 778 -14 692 86 b 913 492 692 392 778 492 m 1451 492 b 1672 239 1586 492 1672 392 b 1451 -14 1672 86 1586 -14 b 1231 239 1317 -14 1231 86 b 1451 492 1231 392 1317 492 m 913 404 b 790 239 833 404 790 343 b 913 74 790 135 833 74 b 1035 239 992 74 1035 135 b 913 404 1035 343 992 404 m 1451 404 b 1329 239 1372 404 1329 343 b 1451 74 1329 135 1372 74 b 1574 239 1531 74 1574 135 b 1451 404 1574 343 1531 404 "},"+":{"ha":839,"x_min":0,"x_max":0,"o":"m 757 388 l 472 388 l 472 94 l 368 94 l 368 388 l 82 388 l 82 492 l 368 492 l 368 783 l 472 783 l 472 492 l 757 492 "},"₊":{"ha":475,"x_min":0,"x_max":0,"o":"m 438 -24 l 278 -24 l 278 -190 l 199 -190 l 199 -24 l 38 -24 l 38 44 l 199 44 l 199 211 l 278 211 l 278 44 l 438 44 "},"±":{"ha":839,"x_min":0,"x_max":0,"o":"m 757 603 l 757 499 l 472 499 l 472 214 l 368 214 l 368 499 l 82 499 l 82 603 l 368 603 l 368 889 l 472 889 l 472 603 m 82 104 l 757 104 l 757 0 l 82 0 "},"⁺":{"ha":475,"x_min":0,"x_max":0,"o":"m 438 701 l 278 701 l 278 535 l 199 535 l 199 701 l 38 701 l 38 769 l 199 769 l 199 936 l 278 936 l 278 769 l 438 769 "},"∏":{"ha":972,"x_min":0,"x_max":0,"o":"m 846 -178 l 735 -178 l 735 813 l 238 813 l 238 -178 l 126 -178 l 126 917 l 846 917 "},"√":{"ha":933,"x_min":0,"x_max":0,"o":"m 933 1136 l 483 0 l 374 0 l 172 492 l 28 492 l 28 596 l 235 596 l 393 217 l 431 103 l 468 221 l 825 1136 "},"∑":{"ha":885,"x_min":0,"x_max":0,"o":"m 797 813 l 226 813 l 674 382 l 674 363 l 225 -74 l 797 -74 l 797 -178 l 81 -178 l 81 -74 l 535 372 l 81 813 l 81 917 l 797 917 "},"µ":{"ha":849,"x_min":0,"x_max":0,"o":"m 729 694 l 729 0 l 639 0 l 629 113 b 376 -14 582 29 497 -14 b 232 49 319 -14 268 6 l 232 -292 l 121 -292 l 121 694 l 232 694 l 232 269 b 396 83 232 126 296 83 b 618 256 517 83 600 147 l 618 694 "},"Ω":{"ha":1075,"x_min":0,"x_max":0,"o":"m 976 94 l 976 0 l 617 0 l 617 94 b 851 458 760 132 851 260 b 538 826 851 689 728 826 b 224 458 347 826 224 689 b 458 94 224 260 315 132 l 458 0 l 99 0 l 99 94 l 301 94 b 113 458 181 169 113 297 b 538 931 113 749 276 931 b 963 458 799 931 963 749 b 774 94 963 297 894 169 "},"∆":{"ha":971,"x_min":0,"x_max":0,"o":"m 915 93 l 915 0 l 56 0 l 56 93 l 419 917 l 551 917 m 157 93 l 814 93 l 485 832 "},"∕":{"ha":344,"x_min":0,"x_max":0,"o":"m 449 917 l 558 917 l -104 0 l -214 0 "},"∙":{"ha":314,"x_min":0,"x_max":0,"o":"m 157 564 b 247 474 211 564 247 528 b 157 383 247 419 211 383 b 67 474 103 383 67 419 b 157 564 67 528 103 564 "},"↑":{"ha":1042,"x_min":0,"x_max":0,"o":"m 524 925 b 981 515 636 769 760 650 l 908 428 b 564 733 753 531 635 635 b 575 493 569 671 575 593 l 575 0 l 464 0 l 464 493 b 475 733 464 593 469 671 b 131 428 404 635 286 531 l 58 515 b 515 925 279 650 403 769 l 524 925 "},"↗":{"ha":1042,"x_min":0,"x_max":0,"o":"m 868 813 b 860 160 833 594 822 383 l 751 149 b 760 647 726 306 731 501 b 599 472 718 599 669 542 l 250 124 l 172 201 l 521 550 b 696 711 590 621 647 669 b 197 703 550 682 354 678 l 208 811 b 861 819 432 774 643 785 l 868 813 "},"→":{"ha":1042,"x_min":0,"x_max":0,"o":"m 583 921 b 993 464 718 700 838 576 l 993 456 b 583 -1 838 343 718 219 l 496 71 b 801 415 599 226 703 344 b 561 404 739 410 661 404 l 68 404 l 68 515 l 561 515 b 801 504 661 515 739 510 b 496 849 703 575 599 693 l 583 921 "},"↘":{"ha":1042,"x_min":0,"x_max":0,"o":"m 847 799 b 856 146 810 575 821 364 l 849 139 b 196 147 631 174 419 185 l 185 256 b 683 247 342 281 538 276 b 508 408 635 289 578 338 l 160 757 l 238 835 l 586 486 b 747 311 657 417 706 360 b 739 810 718 457 714 653 l 847 799 "},"↓":{"ha":1042,"x_min":0,"x_max":0,"o":"m 983 401 b 526 -8 763 267 639 147 l 518 -8 b 61 401 406 147 282 267 l 133 489 b 478 183 289 386 407 282 b 467 424 472 246 467 324 l 467 917 l 578 917 l 578 424 b 567 183 578 324 572 246 b 911 489 638 282 756 386 "},"↙":{"ha":1042,"x_min":0,"x_max":0,"o":"m 358 247 b 857 256 504 276 700 281 l 846 147 b 193 139 622 185 411 174 l 186 146 b 194 799 221 364 232 575 l 303 810 b 294 311 328 653 324 457 b 456 486 336 360 385 417 l 804 835 l 882 757 l 533 408 b 358 247 464 338 407 289 "},"←":{"ha":1042,"x_min":0,"x_max":0,"o":"m 481 404 b 240 415 381 404 303 410 b 546 71 339 344 443 226 l 458 -1 b 49 456 324 219 204 343 l 49 464 b 458 921 204 576 324 700 l 546 849 b 240 504 443 693 339 575 b 481 515 303 510 381 515 l 974 515 l 974 404 "},"↖":{"ha":1042,"x_min":0,"x_max":0,"o":"m 869 201 l 792 124 l 443 472 b 282 647 372 542 324 599 b 290 149 311 501 315 306 l 182 160 b 174 813 219 383 208 594 l 181 819 b 833 811 399 785 610 774 l 844 703 b 346 711 688 678 492 682 b 521 550 394 669 451 621 "},"↔":{"ha":1475,"x_min":0,"x_max":0,"o":"m 1017 946 b 1426 489 1151 725 1271 601 l 1426 481 b 1017 24 1271 368 1151 244 l 919 82 b 1235 439 1029 247 1136 368 b 1050 429 1185 433 1126 429 l 425 429 b 240 439 349 429 290 433 b 556 82 339 368 446 247 l 458 24 b 49 481 324 244 204 368 l 49 489 b 458 946 204 601 324 725 l 556 888 b 240 531 446 722 339 601 b 425 540 290 536 349 540 l 1050 540 b 1235 531 1126 540 1185 536 b 919 888 1136 601 1029 722 l 1017 946 "},"↕":{"ha":1042,"x_min":0,"x_max":0,"o":"m 565 -39 b 922 276 636 60 757 167 l 981 179 b 524 -231 760 44 636 -75 l 515 -231 b 58 179 403 -75 279 44 l 117 276 b 474 -39 282 167 403 60 b 464 146 468 11 464 69 l 464 771 b 474 956 464 847 468 906 b 117 640 403 857 282 750 l 58 738 b 515 1147 279 872 403 992 l 524 1147 b 981 738 636 992 760 872 l 922 640 b 565 956 757 750 636 857 b 575 771 571 906 575 847 l 575 146 b 565 -39 575 69 571 11 "},"●":{"ha":833,"x_min":0,"x_max":0,"o":"m 417 -14 b 56 347 211 -14 56 142 b 417 708 56 553 211 708 b 778 347 622 708 778 553 b 417 -14 778 142 622 -14 "},"○":{"ha":833,"x_min":0,"x_max":0,"o":"m 417 -14 b 56 347 211 -14 56 142 b 417 708 56 553 211 708 b 778 347 622 708 778 553 b 417 -14 778 142 622 -14 m 417 90 b 667 347 560 90 667 201 b 417 604 667 493 560 604 b 167 347 274 604 167 493 b 417 90 167 201 274 90 "},"◆":{"ha":833,"x_min":0,"x_max":0,"o":"m 49 360 l 417 728 l 785 360 l 417 -8 "},"◇":{"ha":833,"x_min":0,"x_max":0,"o":"m 49 360 l 417 728 l 785 360 l 417 -8 m 628 360 l 417 571 l 206 360 l 417 149 "},"◊":{"ha":815,"x_min":0,"x_max":0,"o":"m 750 458 l 474 0 l 342 0 l 67 458 l 342 917 l 474 917 m 624 458 l 408 836 l 193 458 l 408 81 "},"▪":{"ha":833,"x_min":0,"x_max":0,"o":"m 764 694 l 764 0 l 69 0 l 69 694 "},"▫":{"ha":833,"x_min":0,"x_max":0,"o":"m 69 694 l 764 694 l 764 0 l 69 0 m 653 96 l 653 599 l 181 599 l 181 96 "},"❛":{"ha":1014,"x_min":0,"x_max":0,"o":"m 875 833 b 238 579 503 833 338 738 l 247 572 b 524 653 319 626 386 653 b 915 319 769 653 915 529 b 522 -14 915 110 768 -14 b 94 390 208 -14 94 140 b 810 924 94 708 300 924 "},"❜":{"ha":1014,"x_min":0,"x_max":0,"o":"m 139 -97 b 776 157 511 -97 676 -1 l 767 164 b 490 83 694 110 628 83 b 99 417 244 83 99 207 b 492 750 99 626 246 750 b 919 346 806 750 919 596 b 204 -187 919 28 714 -187 "},"❝":{"ha":1747,"x_min":0,"x_max":0,"o":"m 1257 653 b 1649 319 1503 653 1649 529 b 1256 -14 1649 110 1501 -14 b 878 157 1057 -14 938 49 b 522 -14 819 47 696 -14 b 94 390 208 -14 94 140 b 810 924 94 708 300 924 l 875 833 b 238 579 503 833 338 738 l 247 572 b 524 653 319 626 386 653 b 843 533 668 653 778 610 b 1543 924 900 771 1114 924 l 1608 833 b 971 579 1236 833 1071 738 l 981 572 b 1257 653 1053 626 1119 653 "},"❞":{"ha":1747,"x_min":0,"x_max":0,"o":"m 1225 750 b 1653 346 1539 750 1653 596 b 938 -187 1653 28 1447 -187 l 872 -97 b 1510 157 1244 -97 1410 -1 l 1500 164 b 1224 83 1428 110 1361 83 b 904 203 1079 83 969 126 b 204 -187 847 -35 633 -187 l 139 -97 b 776 157 511 -97 676 -1 l 767 164 b 490 83 694 110 628 83 b 99 417 244 83 99 207 b 492 750 99 626 246 750 b 869 579 690 750 810 688 b 1225 750 928 689 1051 750 "},"❡":{"ha":885,"x_min":0,"x_max":0,"o":"m 786 86 b 364 -299 786 -108 699 -299 b 117 -28 201 -299 65 -197 l 194 -11 b 329 -217 161 -140 235 -217 b 481 -24 442 -217 481 -142 l 481 307 l 411 307 b 83 611 215 307 83 429 b 438 917 83 794 225 917 l 786 917 m 568 824 l 568 -61 b 503 -211 568 -114 542 -186 l 507 -217 b 689 69 632 -168 689 -56 l 689 824 "},"|":{"ha":338,"x_min":0,"x_max":0,"o":"m 217 -233 l 121 -233 l 121 1014 l 217 1014 "},"¦":{"ha":354,"x_min":0,"x_max":0,"o":"m 225 510 l 129 510 l 129 1014 l 225 1014 m 225 -233 l 129 -233 l 129 271 l 225 271 "},"@":{"ha":1368,"x_min":0,"x_max":0,"o":"m 704 917 b 1271 361 1094 917 1271 667 b 1015 -7 1271 133 1169 -7 b 854 121 913 -7 868 58 b 608 0 806 47 721 0 b 371 282 478 0 371 104 b 692 646 371 514 532 646 b 900 525 815 646 874 593 l 928 638 l 1000 638 l 946 206 b 1032 71 938 132 954 71 b 1185 361 1131 71 1185 168 b 704 835 1185 636 1024 835 b 185 310 381 835 185 629 b 672 -189 185 0 396 -189 b 972 -99 833 -189 910 -143 l 1021 -162 b 672 -271 942 -218 853 -271 b 92 310 322 -271 92 -39 b 704 917 92 668 333 917 m 703 564 b 471 288 563 564 471 463 b 642 83 471 160 532 83 b 863 286 746 83 846 150 l 871 354 b 703 564 885 471 844 564 "},"&":{"ha":865,"x_min":0,"x_max":0,"o":"m 693 164 b 871 69 768 85 807 69 l 843 -14 b 633 93 774 -14 725 1 b 358 -14 564 28 471 -14 b 67 224 186 -14 67 88 b 286 507 67 335 125 421 b 181 728 208 607 181 658 b 396 931 181 828 254 931 b 610 742 504 931 610 879 b 429 483 610 646 582 572 b 521 368 454 450 485 413 b 632 232 565 314 601 268 b 689 493 674 300 696 389 l 778 482 b 693 164 785 368 756 254 m 394 836 b 285 729 321 836 285 786 b 375 551 285 682 299 651 b 511 739 499 619 511 678 b 394 836 511 806 468 836 m 354 76 b 572 158 438 76 514 106 b 446 308 536 199 494 249 b 343 435 407 357 372 399 b 171 232 200 353 171 299 b 354 76 171 140 257 76 "},"¶":{"ha":885,"x_min":0,"x_max":0,"o":"m 758 -139 l 661 -139 l 661 824 l 482 824 l 482 -139 l 381 -139 l 381 335 b 57 625 181 338 57 450 b 410 917 57 804 181 917 l 758 917 "},"©":{"ha":1139,"x_min":0,"x_max":0,"o":"m 569 931 b 1044 458 858 931 1044 744 b 569 -14 1044 172 858 -14 b 94 458 281 -14 94 172 b 569 931 94 744 281 931 m 569 840 b 193 458 340 840 193 690 b 569 76 193 226 340 76 b 946 458 799 76 946 226 b 569 840 946 690 799 840 m 579 713 b 796 581 689 713 760 663 l 715 540 b 578 629 692 600 647 629 b 419 456 479 629 419 565 b 578 282 419 346 479 282 b 725 375 651 282 701 313 l 801 344 b 579 199 767 254 692 199 b 326 456 422 199 326 296 b 579 713 326 615 422 713 "},"®":{"ha":1139,"x_min":0,"x_max":0,"o":"m 569 931 b 1044 458 858 931 1044 744 b 569 -14 1044 172 858 -14 b 94 458 281 -14 94 172 b 569 931 94 744 281 931 m 569 76 b 946 458 799 76 946 226 b 569 840 946 690 799 840 b 193 458 340 840 193 690 b 569 76 193 226 340 76 m 796 549 b 671 393 796 469 747 414 l 807 199 l 701 199 l 578 385 l 483 385 l 483 199 l 390 199 l 390 713 l 601 713 b 796 549 717 713 796 650 m 483 456 l 600 456 b 703 549 667 456 703 486 b 600 642 703 611 667 642 l 483 642 "},"§":{"ha":831,"x_min":0,"x_max":0,"o":"m 792 376 b 664 186 792 288 733 225 b 707 56 694 153 707 110 b 418 -153 707 -60 594 -153 b 119 -12 271 -153 181 -99 l 201 56 b 417 -56 244 -21 310 -56 b 596 46 529 -56 596 -18 b 351 189 596 126 539 164 b 44 401 125 219 44 279 b 172 592 44 490 103 553 b 129 722 142 625 129 669 b 428 931 129 838 242 931 b 717 790 586 931 664 869 l 639 724 b 425 833 593 793 533 833 b 240 732 307 833 240 796 b 485 589 240 651 297 613 b 792 376 711 560 792 499 m 574 246 b 681 367 628 269 681 306 b 456 488 681 435 626 468 b 263 531 375 497 311 511 b 156 411 207 508 156 472 b 381 290 156 343 210 311 b 574 246 461 281 525 267 "},"™":{"ha":1164,"x_min":0,"x_max":0,"o":"m 451 842 l 313 842 l 313 458 l 215 458 l 215 842 l 75 842 l 75 917 l 451 917 m 1038 917 l 1038 458 l 942 458 l 942 678 l 951 799 l 950 799 l 938 761 l 824 458 l 754 458 l 639 761 l 626 799 l 625 799 l 635 678 l 635 458 l 539 458 l 539 917 l 661 917 l 756 667 l 788 578 l 790 578 l 821 667 l 917 917 "},"°":{"ha":639,"x_min":0,"x_max":0,"o":"m 319 472 b 83 701 182 472 83 568 b 319 931 83 835 182 931 b 556 701 457 931 556 835 b 319 472 556 568 457 472 m 319 563 b 458 701 400 563 458 621 b 319 840 458 782 400 840 b 181 701 239 840 181 782 b 319 563 181 621 239 563 "},"℮":{"ha":1118,"x_min":0,"x_max":0,"o":"m 567 931 b 1038 418 861 931 1038 753 l 279 418 l 279 183 b 594 63 351 107 460 63 b 993 289 758 63 892 131 l 993 182 b 594 -14 910 49 769 -14 b 94 458 281 -14 94 172 b 567 931 94 744 281 931 m 567 854 b 279 736 449 854 349 811 l 279 499 l 854 499 l 854 736 b 567 854 785 811 685 854 "},"ℓ":{"ha":556,"x_min":0,"x_max":0,"o":"m 369 79 b 490 99 413 79 442 86 l 481 6 b 364 -14 447 -7 406 -14 b 169 172 232 -14 169 40 l 169 292 b 65 246 138 274 103 258 l 65 339 b 169 389 103 351 138 368 l 169 743 b 319 931 169 869 221 931 b 468 750 418 931 468 882 b 267 357 468 621 399 467 l 267 186 b 369 79 267 131 304 79 m 322 843 b 267 750 279 843 267 811 l 267 471 b 376 757 339 553 376 656 b 322 843 376 822 361 843 "},"^":{"ha":778,"x_min":0,"x_max":0,"o":"m 628 493 l 389 919 l 150 493 l 38 493 l 336 1014 l 442 1014 l 740 493 "},"†":{"ha":713,"x_min":0,"x_max":0,"o":"m 658 529 l 413 529 l 413 -139 l 301 -139 l 301 529 l 54 529 l 54 625 l 301 625 l 301 917 l 413 917 l 413 625 l 658 625 "},"‡":{"ha":713,"x_min":0,"x_max":0,"o":"m 413 529 l 413 249 l 658 249 l 658 153 l 413 153 l 413 -139 l 301 -139 l 301 153 l 54 153 l 54 249 l 301 249 l 301 529 l 54 529 l 54 625 l 301 625 l 301 917 l 413 917 l 413 625 l 658 625 l 658 529 "},"":{"ha":1569,"x_min":0,"x_max":0,"o":"m 1501 393 l 1414 351 l 1471 281 l 1375 264 l 1414 179 l 1329 174 b 1290 153 1317 165 1304 158 l 1290 40 b 1250 0 1290 14 1276 0 l 1186 0 b 1146 32 1160 0 1146 10 b 1186 67 1146 54 1160 67 l 1201 67 l 1201 121 b 1110 107 1172 114 1142 110 l 1110 40 b 1069 0 1110 14 1096 0 l 1006 0 b 965 32 979 0 965 10 b 1006 67 965 54 979 67 l 1021 67 l 1021 104 l 707 104 l 707 40 b 667 0 707 14 693 0 l 603 0 b 561 32 576 0 561 10 b 603 67 561 54 576 67 l 619 67 l 619 104 l 497 104 l 497 40 b 456 0 497 14 483 0 l 394 0 b 351 32 365 0 351 10 b 394 67 351 54 365 67 l 408 67 l 408 118 b 88 231 285 124 160 167 l 81 231 b 24 288 50 231 24 257 b 81 344 24 318 50 344 b 96 342 86 344 92 343 b 228 581 163 393 228 499 l 233 696 l 311 657 l 311 753 l 389 711 l 383 797 l 476 761 l 483 853 l 574 807 l 585 897 l 678 847 l 701 938 l 781 868 l 822 957 l 890 888 l 958 963 l 1010 881 l 1079 957 l 1115 868 l 1203 929 l 1213 833 l 1310 876 l 1294 781 l 1400 803 l 1371 714 l 1472 718 l 1417 640 l 1508 608 l 1433 556 l 1513 501 l 1431 453 m 549 343 b 617 444 592 357 619 396 b 500 546 614 507 563 549 b 449 522 481 544 461 533 l 464 496 b 501 513 474 504 488 511 b 579 442 547 514 576 488 b 532 372 582 406 565 379 l 549 343 m 331 322 b 421 411 386 322 421 356 l 388 411 b 331 360 388 374 368 360 b 274 411 293 360 274 374 l 240 411 b 331 322 240 356 275 322 "},"̦":{"ha":0,"x_min":0,"x_max":0,"o":"m -364 -329 l -451 -329 l -390 -106 l -274 -106 "},"ˉ":{"ha":694,"x_min":0,"x_max":0,"o":"m 589 828 l 106 828 l 106 921 l 589 921 "},"´":{"ha":694,"x_min":0,"x_max":0,"o":"m 515 1042 l 379 810 l 289 810 l 394 1042 "},"˘":{"ha":694,"x_min":0,"x_max":0,"o":"m 553 1007 b 347 801 553 885 469 801 b 142 1007 225 801 142 885 l 233 1007 b 347 885 233 942 282 885 b 461 1007 413 885 461 942 l 553 1007 "},"ˇ":{"ha":694,"x_min":0,"x_max":0,"o":"m 411 810 l 283 810 l 128 1042 l 229 1042 l 347 888 l 465 1042 l 567 1042 "},"¸":{"ha":694,"x_min":0,"x_max":0,"o":"m 343 40 b 517 -150 458 6 517 -75 b 356 -299 517 -228 458 -299 b 203 -250 290 -299 242 -285 l 244 -174 b 340 -215 267 -197 301 -215 b 419 -135 385 -215 419 -183 b 282 4 419 -76 390 -44 "},"ˆ":{"ha":694,"x_min":0,"x_max":0,"o":"m 465 800 l 347 954 l 229 800 l 128 800 l 283 1032 l 411 1032 l 567 800 "},"¨":{"ha":694,"x_min":0,"x_max":0,"o":"m 217 967 b 296 888 264 967 296 935 b 217 808 296 840 264 808 b 138 888 169 808 138 840 b 217 967 138 935 169 967 m 486 967 b 565 888 533 967 565 935 b 486 808 565 840 533 808 b 407 888 439 808 407 840 b 486 967 407 935 439 967 "},"˙":{"ha":694,"x_min":0,"x_max":0,"o":"m 347 994 b 431 911 397 994 431 961 b 347 828 431 861 397 828 b 264 911 297 828 264 861 b 347 994 264 961 297 994 "},"`":{"ha":694,"x_min":0,"x_max":0,"o":"m 406 810 l 315 810 l 179 1042 l 300 1042 "},"˝":{"ha":694,"x_min":0,"x_max":0,"o":"m 204 810 l 114 810 l 219 1042 l 340 1042 m 449 810 l 358 810 l 464 1042 l 585 1042 "},"¯":{"ha":694,"x_min":0,"x_max":0,"o":"m 589 828 l 106 828 l 106 921 l 589 921 "},"˛":{"ha":694,"x_min":0,"x_max":0,"o":"m 474 22 b 288 -146 335 -39 288 -94 b 376 -219 288 -192 324 -219 b 453 -203 400 -219 431 -217 l 475 -274 b 363 -299 449 -290 403 -299 b 197 -161 263 -299 197 -242 b 410 57 197 -57 272 -1 l 474 22 "},"˚":{"ha":694,"x_min":0,"x_max":0,"o":"m 347 1128 b 521 964 451 1128 521 1061 b 347 799 521 865 451 799 b 172 964 243 799 172 865 b 347 1128 172 1061 243 1128 m 347 1060 b 249 964 290 1060 249 1019 b 347 868 249 908 290 868 b 446 964 404 868 446 908 b 347 1060 446 1019 404 1060 "},"˜":{"ha":694,"x_min":0,"x_max":0,"o":"m 599 996 b 443 810 589 874 539 810 b 251 904 339 810 311 904 b 183 808 210 904 193 868 l 96 808 b 253 994 106 931 154 994 b 442 900 354 994 386 900 b 511 996 483 900 501 936 l 599 996 "}}}
